<?xml version="1.0" encoding="UTF-8" standalone="no"?><svg xmlns="http://www.w3.org/2000/svg" xmlns:xlink="http://www.w3.org/1999/xlink" clip-rule="evenodd" stroke-miterlimit="4.00" viewBox="0 0 1024 768"><desc>SVG generated by Keynote</desc><defs></defs><g transform="matrix(1.00, 0.00, -0.00, -1.00, 0.0, 768.0)"><path d="M 0.0 768.0 L 1024.0 768.0 L 1024.0 0.0 L 0.0 0.0 Z M 0.0 768.0 " fill="#FEFFFF"></path><image xlink:href="../../293D72A4-E83E-4E39-9173-D2FA125CBD9C/assets/364F746EE65C5D21362C0F105B3A1498.png" width="720.00" height="540.00" transform="matrix(1.42, 0.00, -0.00, -1.42, 0.0, 768.0)"></image><g><clipPath id="clip-901"><path d="M 222.0 668.0 L 392.0 668.0 L 392.0 603.0 L 222.0 603.0 Z M 222.2 667.8 "></path></clipPath><g clip-path="url(#clip-901)"><image xlink:href="../../11EA4C3E-3C9F-45F0-AC91-CB1322F84EB8/assets/4CDAA08A53443DDBCB58A60D5B653F06.png" width="170.00" height="65.00" transform="matrix(1.00, 0.00, -0.00, -1.00, 222.0, 668.0)"></image></g></g><g><clipPath id="clip-902"><path d="M 222.0 587.0 L 392.0 587.0 L 392.0 522.0 L 222.0 522.0 Z M 222.2 587.2 "></path></clipPath><g clip-path="url(#clip-902)"><image xlink:href="../../11EA4C3E-3C9F-45F0-AC91-CB1322F84EB8/assets/4CDAA08A53443DDBCB58A60D5B653F06.png" width="170.00" height="65.00" transform="matrix(1.00, 0.00, -0.00, -1.00, 222.0, 587.0)"></image></g></g><g><clipPath id="clip-903"><path d="M 222.0 502.0 L 392.0 502.0 L 392.0 437.0 L 222.0 437.0 Z M 222.2 501.8 "></path></clipPath><g clip-path="url(#clip-903)"><image xlink:href="../../11EA4C3E-3C9F-45F0-AC91-CB1322F84EB8/assets/4CDAA08A53443DDBCB58A60D5B653F06.png" width="170.00" height="65.00" transform="matrix(1.00, 0.00, -0.00, -1.00, 222.0, 502.0)"></image></g></g><g><clipPath id="clip-904"><path d="M 222.0 417.0 L 392.0 417.0 L 392.0 352.0 L 222.0 352.0 Z M 222.2 416.5 "></path></clipPath><g clip-path="url(#clip-904)"><image xlink:href="../../11EA4C3E-3C9F-45F0-AC91-CB1322F84EB8/assets/4CDAA08A53443DDBCB58A60D5B653F06.png" width="170.00" height="65.00" transform="matrix(1.00, 0.00, -0.00, -1.00, 222.0, 416.0)"></image></g></g><g><clipPath id="clip-905"><path d="M 222.0 331.0 L 392.0 331.0 L 392.0 266.0 L 222.0 266.0 Z M 222.2 331.2 "></path></clipPath><g clip-path="url(#clip-905)"><image xlink:href="../../11EA4C3E-3C9F-45F0-AC91-CB1322F84EB8/assets/4CDAA08A53443DDBCB58A60D5B653F06.png" width="170.00" height="65.00" transform="matrix(1.00, 0.00, -0.00, -1.00, 222.0, 331.0)"></image></g></g><g><clipPath id="clip-906"><path d="M 222.0 246.0 L 392.0 246.0 L 392.0 181.0 L 222.0 181.0 Z M 222.2 245.8 "></path></clipPath><g clip-path="url(#clip-906)"><image xlink:href="../../11EA4C3E-3C9F-45F0-AC91-CB1322F84EB8/assets/4CDAA08A53443DDBCB58A60D5B653F06.png" width="170.00" height="65.00" transform="matrix(1.00, 0.00, -0.00, -1.00, 222.0, 246.0)"></image></g></g><g><clipPath id="clip-907"><path d="M 222.0 161.0 L 392.0 161.0 L 392.0 96.0 L 222.0 96.0 Z M 222.2 160.5 "></path></clipPath><g clip-path="url(#clip-907)"><image xlink:href="../../11EA4C3E-3C9F-45F0-AC91-CB1322F84EB8/assets/4CDAA08A53443DDBCB58A60D5B653F06.png" width="170.00" height="65.00" transform="matrix(1.00, 0.00, -0.00, -1.00, 222.0, 160.0)"></image></g></g><g><clipPath id="clip-908"><path d="M 222.0 75.0 L 392.0 75.0 L 392.0 10.0 L 222.0 10.0 Z M 222.2 75.2 "></path></clipPath><g clip-path="url(#clip-908)"><image xlink:href="../../11EA4C3E-3C9F-45F0-AC91-CB1322F84EB8/assets/4CDAA08A53443DDBCB58A60D5B653F06.png" width="170.00" height="65.00" transform="matrix(1.00, 0.00, -0.00, -1.00, 222.0, 75.0)"></image></g></g><g><clipPath id="clip-909"><path d="M 429.0 668.0 L 599.0 668.0 L 599.0 603.0 L 429.0 603.0 Z M 429.2 667.8 "></path></clipPath><g clip-path="url(#clip-909)"><image xlink:href="../../11EA4C3E-3C9F-45F0-AC91-CB1322F84EB8/assets/4CDAA08A53443DDBCB58A60D5B653F06.png" width="170.00" height="65.00" transform="matrix(1.00, 0.00, -0.00, -1.00, 429.0, 668.0)"></image></g></g><g><clipPath id="clip-910"><path d="M 429.0 587.0 L 599.0 587.0 L 599.0 522.0 L 429.0 522.0 Z M 429.2 587.2 "></path></clipPath><g clip-path="url(#clip-910)"><image xlink:href="../../11EA4C3E-3C9F-45F0-AC91-CB1322F84EB8/assets/4CDAA08A53443DDBCB58A60D5B653F06.png" width="170.00" height="65.00" transform="matrix(1.00, 0.00, -0.00, -1.00, 429.0, 587.0)"></image></g></g><g><clipPath id="clip-911"><path d="M 429.0 502.0 L 599.0 502.0 L 599.0 437.0 L 429.0 437.0 Z M 429.2 501.8 "></path></clipPath><g clip-path="url(#clip-911)"><image xlink:href="../../11EA4C3E-3C9F-45F0-AC91-CB1322F84EB8/assets/4CDAA08A53443DDBCB58A60D5B653F06.png" width="170.00" height="65.00" transform="matrix(1.00, 0.00, -0.00, -1.00, 429.0, 502.0)"></image></g></g><g><clipPath id="clip-912"><path d="M 429.0 417.0 L 599.0 417.0 L 599.0 352.0 L 429.0 352.0 Z M 429.2 416.5 "></path></clipPath><g clip-path="url(#clip-912)"><image xlink:href="../../11EA4C3E-3C9F-45F0-AC91-CB1322F84EB8/assets/4CDAA08A53443DDBCB58A60D5B653F06.png" width="170.00" height="65.00" transform="matrix(1.00, 0.00, -0.00, -1.00, 429.0, 416.0)"></image></g></g><g><clipPath id="clip-913"><path d="M 429.0 331.0 L 599.0 331.0 L 599.0 266.0 L 429.0 266.0 Z M 429.2 331.2 "></path></clipPath><g clip-path="url(#clip-913)"><image xlink:href="../../11EA4C3E-3C9F-45F0-AC91-CB1322F84EB8/assets/4CDAA08A53443DDBCB58A60D5B653F06.png" width="170.00" height="65.00" transform="matrix(1.00, 0.00, -0.00, -1.00, 429.0, 331.0)"></image></g></g><g><clipPath id="clip-914"><path d="M 429.0 246.0 L 599.0 246.0 L 599.0 181.0 L 429.0 181.0 Z M 429.2 245.8 "></path></clipPath><g clip-path="url(#clip-914)"><image xlink:href="../../11EA4C3E-3C9F-45F0-AC91-CB1322F84EB8/assets/4CDAA08A53443DDBCB58A60D5B653F06.png" width="170.00" height="65.00" transform="matrix(1.00, 0.00, -0.00, -1.00, 429.0, 246.0)"></image></g></g><g><clipPath id="clip-915"><path d="M 429.0 161.0 L 599.0 161.0 L 599.0 96.0 L 429.0 96.0 Z M 429.2 160.5 "></path></clipPath><g clip-path="url(#clip-915)"><image xlink:href="../../11EA4C3E-3C9F-45F0-AC91-CB1322F84EB8/assets/4CDAA08A53443DDBCB58A60D5B653F06.png" width="170.00" height="65.00" transform="matrix(1.00, 0.00, -0.00, -1.00, 429.0, 160.0)"></image></g></g><g><clipPath id="clip-916"><path d="M 429.0 75.0 L 599.0 75.0 L 599.0 10.0 L 429.0 10.0 Z M 429.2 75.2 "></path></clipPath><g clip-path="url(#clip-916)"><image xlink:href="../../11EA4C3E-3C9F-45F0-AC91-CB1322F84EB8/assets/4CDAA08A53443DDBCB58A60D5B653F06.png" width="170.00" height="65.00" transform="matrix(1.00, 0.00, -0.00, -1.00, 429.0, 75.0)"></image></g></g><g><clipPath id="clip-917"><path d="M 632.0 668.0 L 802.0 668.0 L 802.0 603.0 L 632.0 603.0 Z M 631.8 667.8 "></path></clipPath><g clip-path="url(#clip-917)"><image xlink:href="../../11EA4C3E-3C9F-45F0-AC91-CB1322F84EB8/assets/4CDAA08A53443DDBCB58A60D5B653F06.png" width="170.00" height="65.00" transform="matrix(1.00, 0.00, -0.00, -1.00, 632.0, 668.0)"></image></g></g><g><clipPath id="clip-918"><path d="M 632.0 587.0 L 802.0 587.0 L 802.0 522.0 L 632.0 522.0 Z M 631.8 587.2 "></path></clipPath><g clip-path="url(#clip-918)"><image xlink:href="../../11EA4C3E-3C9F-45F0-AC91-CB1322F84EB8/assets/4CDAA08A53443DDBCB58A60D5B653F06.png" width="170.00" height="65.00" transform="matrix(1.00, 0.00, -0.00, -1.00, 632.0, 587.0)"></image></g></g><g><clipPath id="clip-919"><path d="M 632.0 502.0 L 802.0 502.0 L 802.0 437.0 L 632.0 437.0 Z M 631.8 501.8 "></path></clipPath><g clip-path="url(#clip-919)"><image xlink:href="../../11EA4C3E-3C9F-45F0-AC91-CB1322F84EB8/assets/4CDAA08A53443DDBCB58A60D5B653F06.png" width="170.00" height="65.00" transform="matrix(1.00, 0.00, -0.00, -1.00, 632.0, 502.0)"></image></g></g><g><clipPath id="clip-920"><path d="M 632.0 417.0 L 802.0 417.0 L 802.0 352.0 L 632.0 352.0 Z M 631.8 416.5 "></path></clipPath><g clip-path="url(#clip-920)"><image xlink:href="../../11EA4C3E-3C9F-45F0-AC91-CB1322F84EB8/assets/4CDAA08A53443DDBCB58A60D5B653F06.png" width="170.00" height="65.00" transform="matrix(1.00, 0.00, -0.00, -1.00, 632.0, 416.0)"></image></g></g><g><clipPath id="clip-921"><path d="M 632.0 331.0 L 802.0 331.0 L 802.0 266.0 L 632.0 266.0 Z M 631.8 331.2 "></path></clipPath><g clip-path="url(#clip-921)"><image xlink:href="../../11EA4C3E-3C9F-45F0-AC91-CB1322F84EB8/assets/4CDAA08A53443DDBCB58A60D5B653F06.png" width="170.00" height="65.00" transform="matrix(1.00, 0.00, -0.00, -1.00, 632.0, 331.0)"></image></g></g><g><clipPath id="clip-922"><path d="M 632.0 246.0 L 802.0 246.0 L 802.0 181.0 L 632.0 181.0 Z M 631.8 245.8 "></path></clipPath><g clip-path="url(#clip-922)"><image xlink:href="../../11EA4C3E-3C9F-45F0-AC91-CB1322F84EB8/assets/4CDAA08A53443DDBCB58A60D5B653F06.png" width="170.00" height="65.00" transform="matrix(1.00, 0.00, -0.00, -1.00, 632.0, 246.0)"></image></g></g><g><clipPath id="clip-923"><path d="M 632.0 161.0 L 802.0 161.0 L 802.0 96.0 L 632.0 96.0 Z M 631.8 160.5 "></path></clipPath><g clip-path="url(#clip-923)"><image xlink:href="../../11EA4C3E-3C9F-45F0-AC91-CB1322F84EB8/assets/4CDAA08A53443DDBCB58A60D5B653F06.png" width="170.00" height="65.00" transform="matrix(1.00, 0.00, -0.00, -1.00, 632.0, 160.0)"></image></g></g><g><clipPath id="clip-924"><path d="M 632.0 75.0 L 802.0 75.0 L 802.0 10.0 L 632.0 10.0 Z M 631.8 75.2 "></path></clipPath><g clip-path="url(#clip-924)"><image xlink:href="../../11EA4C3E-3C9F-45F0-AC91-CB1322F84EB8/assets/4CDAA08A53443DDBCB58A60D5B653F06.png" width="170.00" height="65.00" transform="matrix(1.00, 0.00, -0.00, -1.00, 632.0, 75.0)"></image></g></g><g><clipPath id="clip-925"><path d="M 837.0 668.0 L 1007.0 668.0 L 1007.0 603.0 L 837.0 603.0 Z M 836.6 667.8 "></path></clipPath><g clip-path="url(#clip-925)"><image xlink:href="../../11EA4C3E-3C9F-45F0-AC91-CB1322F84EB8/assets/4CDAA08A53443DDBCB58A60D5B653F06.png" width="170.00" height="65.00" transform="matrix(1.00, 0.00, -0.00, -1.00, 837.0, 668.0)"></image></g></g><g><clipPath id="clip-926"><path d="M 837.0 587.0 L 1007.0 587.0 L 1007.0 522.0 L 837.0 522.0 Z M 836.6 587.2 "></path></clipPath><g clip-path="url(#clip-926)"><image xlink:href="../../11EA4C3E-3C9F-45F0-AC91-CB1322F84EB8/assets/4CDAA08A53443DDBCB58A60D5B653F06.png" width="170.00" height="65.00" transform="matrix(1.00, 0.00, -0.00, -1.00, 837.0, 587.0)"></image></g></g><g><clipPath id="clip-927"><path d="M 837.0 502.0 L 1007.0 502.0 L 1007.0 437.0 L 837.0 437.0 Z M 836.6 501.8 "></path></clipPath><g clip-path="url(#clip-927)"><image xlink:href="../../11EA4C3E-3C9F-45F0-AC91-CB1322F84EB8/assets/4CDAA08A53443DDBCB58A60D5B653F06.png" width="170.00" height="65.00" transform="matrix(1.00, 0.00, -0.00, -1.00, 837.0, 502.0)"></image></g></g><g><clipPath id="clip-928"><path d="M 837.0 417.0 L 1007.0 417.0 L 1007.0 352.0 L 837.0 352.0 Z M 836.6 416.5 "></path></clipPath><g clip-path="url(#clip-928)"><image xlink:href="../../11EA4C3E-3C9F-45F0-AC91-CB1322F84EB8/assets/4CDAA08A53443DDBCB58A60D5B653F06.png" width="170.00" height="65.00" transform="matrix(1.00, 0.00, -0.00, -1.00, 837.0, 416.0)"></image></g></g><g><clipPath id="clip-929"><path d="M 837.0 331.0 L 1007.0 331.0 L 1007.0 266.0 L 837.0 266.0 Z M 836.6 331.2 "></path></clipPath><g clip-path="url(#clip-929)"><image xlink:href="../../11EA4C3E-3C9F-45F0-AC91-CB1322F84EB8/assets/4CDAA08A53443DDBCB58A60D5B653F06.png" width="170.00" height="65.00" transform="matrix(1.00, 0.00, -0.00, -1.00, 837.0, 331.0)"></image></g></g><g><clipPath id="clip-930"><path d="M 837.0 246.0 L 1007.0 246.0 L 1007.0 181.0 L 837.0 181.0 Z M 836.6 245.8 "></path></clipPath><g clip-path="url(#clip-930)"><image xlink:href="../../11EA4C3E-3C9F-45F0-AC91-CB1322F84EB8/assets/4CDAA08A53443DDBCB58A60D5B653F06.png" width="170.00" height="65.00" transform="matrix(1.00, 0.00, -0.00, -1.00, 837.0, 246.0)"></image></g></g><g><clipPath id="clip-931"><path d="M 837.0 161.0 L 1007.0 161.0 L 1007.0 96.0 L 837.0 96.0 Z M 836.6 160.5 "></path></clipPath><g clip-path="url(#clip-931)"><image xlink:href="../../11EA4C3E-3C9F-45F0-AC91-CB1322F84EB8/assets/4CDAA08A53443DDBCB58A60D5B653F06.png" width="170.00" height="65.00" transform="matrix(1.00, 0.00, -0.00, -1.00, 837.0, 160.0)"></image></g></g><g><clipPath id="clip-932"><path d="M 837.0 75.0 L 1007.0 75.0 L 1007.0 10.0 L 837.0 10.0 Z M 836.6 75.2 "></path></clipPath><g clip-path="url(#clip-932)"><image xlink:href="../../11EA4C3E-3C9F-45F0-AC91-CB1322F84EB8/assets/4CDAA08A53443DDBCB58A60D5B653F06.png" width="170.00" height="65.00" transform="matrix(1.00, 0.00, -0.00, -1.00, 837.0, 75.0)"></image></g></g></g></svg>