<?xml version="1.0" encoding="UTF-8" standalone="no"?><svg xmlns="http://www.w3.org/2000/svg" xmlns:xlink="http://www.w3.org/1999/xlink" clip-rule="evenodd" stroke-miterlimit="4.00" viewBox="0 0 1024 768"><desc>SVG generated by Keynote</desc><defs></defs><g transform="matrix(1.00, 0.00, -0.00, -1.00, 0.0, 768.0)"><path d="M 0.0 768.0 L 1024.0 768.0 L 1024.0 0.0 L 0.0 0.0 Z M 0.0 768.0 " fill="#FEFFFF"></path><image xlink:href="../../293D72A4-E83E-4E39-9173-D2FA125CBD9C/assets/364F746EE65C5D21362C0F105B3A1498.png" width="720.00" height="540.00" transform="matrix(1.42, 0.00, -0.00, -1.42, 0.0, 768.0)"></image><g><clipPath id="clip-1653"><path d="M 222.0 668.0 L 392.0 668.0 L 392.0 603.0 L 222.0 603.0 Z M 222.2 667.8 "></path></clipPath><g clip-path="url(#clip-1653)"><image xlink:href="../../293D72A4-E83E-4E39-9173-D2FA125CBD9C/assets/B629A8BA9595ED1035329D5530593FA4.png" width="170.00" height="65.00" transform="matrix(1.00, 0.00, -0.00, -1.00, 222.0, 668.0)"></image></g></g><g><clipPath id="clip-1654"><path d="M 222.0 587.0 L 392.0 587.0 L 392.0 522.0 L 222.0 522.0 Z M 222.2 587.2 "></path></clipPath><g clip-path="url(#clip-1654)"><image xlink:href="../../293D72A4-E83E-4E39-9173-D2FA125CBD9C/assets/B629A8BA9595ED1035329D5530593FA4.png" width="170.00" height="65.00" transform="matrix(1.00, 0.00, -0.00, -1.00, 222.0, 587.0)"></image></g></g><g><clipPath id="clip-1655"><path d="M 222.0 502.0 L 392.0 502.0 L 392.0 437.0 L 222.0 437.0 Z M 222.2 501.8 "></path></clipPath><g clip-path="url(#clip-1655)"><image xlink:href="../../293D72A4-E83E-4E39-9173-D2FA125CBD9C/assets/B629A8BA9595ED1035329D5530593FA4.png" width="170.00" height="65.00" transform="matrix(1.00, 0.00, -0.00, -1.00, 222.0, 502.0)"></image></g></g><g><clipPath id="clip-1656"><path d="M 222.0 417.0 L 392.0 417.0 L 392.0 352.0 L 222.0 352.0 Z M 222.2 416.5 "></path></clipPath><g clip-path="url(#clip-1656)"><image xlink:href="../../293D72A4-E83E-4E39-9173-D2FA125CBD9C/assets/B629A8BA9595ED1035329D5530593FA4.png" width="170.00" height="65.00" transform="matrix(1.00, 0.00, -0.00, -1.00, 222.0, 416.0)"></image></g></g><g><clipPath id="clip-1657"><path d="M 222.0 331.0 L 392.0 331.0 L 392.0 266.0 L 222.0 266.0 Z M 222.2 331.2 "></path></clipPath><g clip-path="url(#clip-1657)"><image xlink:href="../../293D72A4-E83E-4E39-9173-D2FA125CBD9C/assets/B629A8BA9595ED1035329D5530593FA4.png" width="170.00" height="65.00" transform="matrix(1.00, 0.00, -0.00, -1.00, 222.0, 331.0)"></image></g></g><g><clipPath id="clip-1658"><path d="M 222.0 246.0 L 392.0 246.0 L 392.0 181.0 L 222.0 181.0 Z M 222.2 245.8 "></path></clipPath><g clip-path="url(#clip-1658)"><image xlink:href="../../293D72A4-E83E-4E39-9173-D2FA125CBD9C/assets/B629A8BA9595ED1035329D5530593FA4.png" width="170.00" height="65.00" transform="matrix(1.00, 0.00, -0.00, -1.00, 222.0, 246.0)"></image></g></g><g><clipPath id="clip-1659"><path d="M 222.0 161.0 L 392.0 161.0 L 392.0 96.0 L 222.0 96.0 Z M 222.2 160.5 "></path></clipPath><g clip-path="url(#clip-1659)"><image xlink:href="../../293D72A4-E83E-4E39-9173-D2FA125CBD9C/assets/B629A8BA9595ED1035329D5530593FA4.png" width="170.00" height="65.00" transform="matrix(1.00, 0.00, -0.00, -1.00, 222.0, 160.0)"></image></g></g><g><clipPath id="clip-1660"><path d="M 222.0 75.0 L 392.0 75.0 L 392.0 10.0 L 222.0 10.0 Z M 222.2 75.2 "></path></clipPath><g clip-path="url(#clip-1660)"><image xlink:href="../../293D72A4-E83E-4E39-9173-D2FA125CBD9C/assets/B629A8BA9595ED1035329D5530593FA4.png" width="170.00" height="65.00" transform="matrix(1.00, 0.00, -0.00, -1.00, 222.0, 75.0)"></image></g></g><g><clipPath id="clip-1661"><path d="M 429.0 668.0 L 599.0 668.0 L 599.0 603.0 L 429.0 603.0 Z M 429.2 667.8 "></path></clipPath><g clip-path="url(#clip-1661)"><image xlink:href="../../293D72A4-E83E-4E39-9173-D2FA125CBD9C/assets/B629A8BA9595ED1035329D5530593FA4.png" width="170.00" height="65.00" transform="matrix(1.00, 0.00, -0.00, -1.00, 429.0, 668.0)"></image></g></g><g><clipPath id="clip-1662"><path d="M 429.0 587.0 L 599.0 587.0 L 599.0 522.0 L 429.0 522.0 Z M 429.2 587.2 "></path></clipPath><g clip-path="url(#clip-1662)"><image xlink:href="../../293D72A4-E83E-4E39-9173-D2FA125CBD9C/assets/B629A8BA9595ED1035329D5530593FA4.png" width="170.00" height="65.00" transform="matrix(1.00, 0.00, -0.00, -1.00, 429.0, 587.0)"></image></g></g><g><clipPath id="clip-1663"><path d="M 429.0 502.0 L 599.0 502.0 L 599.0 437.0 L 429.0 437.0 Z M 429.2 501.8 "></path></clipPath><g clip-path="url(#clip-1663)"><image xlink:href="../../293D72A4-E83E-4E39-9173-D2FA125CBD9C/assets/B629A8BA9595ED1035329D5530593FA4.png" width="170.00" height="65.00" transform="matrix(1.00, 0.00, -0.00, -1.00, 429.0, 502.0)"></image></g></g><g><clipPath id="clip-1664"><path d="M 429.0 417.0 L 599.0 417.0 L 599.0 352.0 L 429.0 352.0 Z M 429.2 416.5 "></path></clipPath><g clip-path="url(#clip-1664)"><image xlink:href="../../293D72A4-E83E-4E39-9173-D2FA125CBD9C/assets/B629A8BA9595ED1035329D5530593FA4.png" width="170.00" height="65.00" transform="matrix(1.00, 0.00, -0.00, -1.00, 429.0, 416.0)"></image></g></g><g><clipPath id="clip-1665"><path d="M 429.0 331.0 L 599.0 331.0 L 599.0 266.0 L 429.0 266.0 Z M 429.2 331.2 "></path></clipPath><g clip-path="url(#clip-1665)"><image xlink:href="../../293D72A4-E83E-4E39-9173-D2FA125CBD9C/assets/B629A8BA9595ED1035329D5530593FA4.png" width="170.00" height="65.00" transform="matrix(1.00, 0.00, -0.00, -1.00, 429.0, 331.0)"></image></g></g><g><clipPath id="clip-1666"><path d="M 429.0 246.0 L 599.0 246.0 L 599.0 181.0 L 429.0 181.0 Z M 429.2 245.8 "></path></clipPath><g clip-path="url(#clip-1666)"><image xlink:href="../../293D72A4-E83E-4E39-9173-D2FA125CBD9C/assets/B629A8BA9595ED1035329D5530593FA4.png" width="170.00" height="65.00" transform="matrix(1.00, 0.00, -0.00, -1.00, 429.0, 246.0)"></image></g></g><g><clipPath id="clip-1667"><path d="M 429.0 161.0 L 599.0 161.0 L 599.0 96.0 L 429.0 96.0 Z M 429.2 160.5 "></path></clipPath><g clip-path="url(#clip-1667)"><image xlink:href="../../293D72A4-E83E-4E39-9173-D2FA125CBD9C/assets/B629A8BA9595ED1035329D5530593FA4.png" width="170.00" height="65.00" transform="matrix(1.00, 0.00, -0.00, -1.00, 429.0, 160.0)"></image></g></g><g><clipPath id="clip-1668"><path d="M 429.0 75.0 L 599.0 75.0 L 599.0 10.0 L 429.0 10.0 Z M 429.2 75.2 "></path></clipPath><g clip-path="url(#clip-1668)"><image xlink:href="../../293D72A4-E83E-4E39-9173-D2FA125CBD9C/assets/B629A8BA9595ED1035329D5530593FA4.png" width="170.00" height="65.00" transform="matrix(1.00, 0.00, -0.00, -1.00, 429.0, 75.0)"></image></g></g><g><clipPath id="clip-1669"><path d="M 632.0 668.0 L 802.0 668.0 L 802.0 603.0 L 632.0 603.0 Z M 631.8 667.8 "></path></clipPath><g clip-path="url(#clip-1669)"><image xlink:href="../../293D72A4-E83E-4E39-9173-D2FA125CBD9C/assets/B629A8BA9595ED1035329D5530593FA4.png" width="170.00" height="65.00" transform="matrix(1.00, 0.00, -0.00, -1.00, 632.0, 668.0)"></image></g></g><g><clipPath id="clip-1670"><path d="M 632.0 587.0 L 802.0 587.0 L 802.0 522.0 L 632.0 522.0 Z M 631.8 587.2 "></path></clipPath><g clip-path="url(#clip-1670)"><image xlink:href="../../293D72A4-E83E-4E39-9173-D2FA125CBD9C/assets/B629A8BA9595ED1035329D5530593FA4.png" width="170.00" height="65.00" transform="matrix(1.00, 0.00, -0.00, -1.00, 632.0, 587.0)"></image></g></g><g><clipPath id="clip-1671"><path d="M 632.0 502.0 L 802.0 502.0 L 802.0 437.0 L 632.0 437.0 Z M 631.8 501.8 "></path></clipPath><g clip-path="url(#clip-1671)"><image xlink:href="../../293D72A4-E83E-4E39-9173-D2FA125CBD9C/assets/B629A8BA9595ED1035329D5530593FA4.png" width="170.00" height="65.00" transform="matrix(1.00, 0.00, -0.00, -1.00, 632.0, 502.0)"></image></g></g><g><clipPath id="clip-1672"><path d="M 632.0 417.0 L 802.0 417.0 L 802.0 352.0 L 632.0 352.0 Z M 631.8 416.5 "></path></clipPath><g clip-path="url(#clip-1672)"><image xlink:href="../../293D72A4-E83E-4E39-9173-D2FA125CBD9C/assets/B629A8BA9595ED1035329D5530593FA4.png" width="170.00" height="65.00" transform="matrix(1.00, 0.00, -0.00, -1.00, 632.0, 416.0)"></image></g></g><g><clipPath id="clip-1673"><path d="M 632.0 331.0 L 802.0 331.0 L 802.0 266.0 L 632.0 266.0 Z M 631.8 331.2 "></path></clipPath><g clip-path="url(#clip-1673)"><image xlink:href="../../293D72A4-E83E-4E39-9173-D2FA125CBD9C/assets/B629A8BA9595ED1035329D5530593FA4.png" width="170.00" height="65.00" transform="matrix(1.00, 0.00, -0.00, -1.00, 632.0, 331.0)"></image></g></g><g><clipPath id="clip-1674"><path d="M 632.0 246.0 L 802.0 246.0 L 802.0 181.0 L 632.0 181.0 Z M 631.8 245.8 "></path></clipPath><g clip-path="url(#clip-1674)"><image xlink:href="../../293D72A4-E83E-4E39-9173-D2FA125CBD9C/assets/B629A8BA9595ED1035329D5530593FA4.png" width="170.00" height="65.00" transform="matrix(1.00, 0.00, -0.00, -1.00, 632.0, 246.0)"></image></g></g><g><clipPath id="clip-1675"><path d="M 632.0 161.0 L 802.0 161.0 L 802.0 96.0 L 632.0 96.0 Z M 631.8 160.5 "></path></clipPath><g clip-path="url(#clip-1675)"><image xlink:href="../../293D72A4-E83E-4E39-9173-D2FA125CBD9C/assets/B629A8BA9595ED1035329D5530593FA4.png" width="170.00" height="65.00" transform="matrix(1.00, 0.00, -0.00, -1.00, 632.0, 160.0)"></image></g></g><g><clipPath id="clip-1676"><path d="M 632.0 75.0 L 802.0 75.0 L 802.0 10.0 L 632.0 10.0 Z M 631.8 75.2 "></path></clipPath><g clip-path="url(#clip-1676)"><image xlink:href="../../293D72A4-E83E-4E39-9173-D2FA125CBD9C/assets/B629A8BA9595ED1035329D5530593FA4.png" width="170.00" height="65.00" transform="matrix(1.00, 0.00, -0.00, -1.00, 632.0, 75.0)"></image></g></g><g><clipPath id="clip-1677"><path d="M 837.0 668.0 L 1007.0 668.0 L 1007.0 603.0 L 837.0 603.0 Z M 836.6 667.8 "></path></clipPath><g clip-path="url(#clip-1677)"><image xlink:href="../../293D72A4-E83E-4E39-9173-D2FA125CBD9C/assets/B629A8BA9595ED1035329D5530593FA4.png" width="170.00" height="65.00" transform="matrix(1.00, 0.00, -0.00, -1.00, 837.0, 668.0)"></image></g></g><g><clipPath id="clip-1678"><path d="M 837.0 587.0 L 1007.0 587.0 L 1007.0 522.0 L 837.0 522.0 Z M 836.6 587.2 "></path></clipPath><g clip-path="url(#clip-1678)"><image xlink:href="../../293D72A4-E83E-4E39-9173-D2FA125CBD9C/assets/B629A8BA9595ED1035329D5530593FA4.png" width="170.00" height="65.00" transform="matrix(1.00, 0.00, -0.00, -1.00, 837.0, 587.0)"></image></g></g><g><clipPath id="clip-1679"><path d="M 837.0 502.0 L 1007.0 502.0 L 1007.0 437.0 L 837.0 437.0 Z M 836.6 501.8 "></path></clipPath><g clip-path="url(#clip-1679)"><image xlink:href="../../293D72A4-E83E-4E39-9173-D2FA125CBD9C/assets/B629A8BA9595ED1035329D5530593FA4.png" width="170.00" height="65.00" transform="matrix(1.00, 0.00, -0.00, -1.00, 837.0, 502.0)"></image></g></g><g><clipPath id="clip-1680"><path d="M 837.0 417.0 L 1007.0 417.0 L 1007.0 352.0 L 837.0 352.0 Z M 836.6 416.5 "></path></clipPath><g clip-path="url(#clip-1680)"><image xlink:href="../../293D72A4-E83E-4E39-9173-D2FA125CBD9C/assets/B629A8BA9595ED1035329D5530593FA4.png" width="170.00" height="65.00" transform="matrix(1.00, 0.00, -0.00, -1.00, 837.0, 416.0)"></image></g></g><g><clipPath id="clip-1681"><path d="M 837.0 331.0 L 1007.0 331.0 L 1007.0 266.0 L 837.0 266.0 Z M 836.6 331.2 "></path></clipPath><g clip-path="url(#clip-1681)"><image xlink:href="../../293D72A4-E83E-4E39-9173-D2FA125CBD9C/assets/B629A8BA9595ED1035329D5530593FA4.png" width="170.00" height="65.00" transform="matrix(1.00, 0.00, -0.00, -1.00, 837.0, 331.0)"></image></g></g><g><clipPath id="clip-1682"><path d="M 837.0 246.0 L 1007.0 246.0 L 1007.0 181.0 L 837.0 181.0 Z M 836.6 245.8 "></path></clipPath><g clip-path="url(#clip-1682)"><image xlink:href="../../293D72A4-E83E-4E39-9173-D2FA125CBD9C/assets/B629A8BA9595ED1035329D5530593FA4.png" width="170.00" height="65.00" transform="matrix(1.00, 0.00, -0.00, -1.00, 837.0, 246.0)"></image></g></g><g><clipPath id="clip-1683"><path d="M 837.0 161.0 L 1007.0 161.0 L 1007.0 96.0 L 837.0 96.0 Z M 836.6 160.5 "></path></clipPath><g clip-path="url(#clip-1683)"><image xlink:href="../../293D72A4-E83E-4E39-9173-D2FA125CBD9C/assets/B629A8BA9595ED1035329D5530593FA4.png" width="170.00" height="65.00" transform="matrix(1.00, 0.00, -0.00, -1.00, 837.0, 160.0)"></image></g></g><g><clipPath id="clip-1684"><path d="M 837.0 75.0 L 1007.0 75.0 L 1007.0 10.0 L 837.0 10.0 Z M 836.6 75.2 "></path></clipPath><g clip-path="url(#clip-1684)"><image xlink:href="../../293D72A4-E83E-4E39-9173-D2FA125CBD9C/assets/B629A8BA9595ED1035329D5530593FA4.png" width="170.00" height="65.00" transform="matrix(1.00, 0.00, -0.00, -1.00, 837.0, 75.0)"></image></g></g></g></svg>