<?xml version="1.0" encoding="UTF-8" standalone="no"?><svg xmlns="http://www.w3.org/2000/svg" xmlns:xlink="http://www.w3.org/1999/xlink" clip-rule="evenodd" stroke-miterlimit="4.00" viewBox="0 0 1024 768"><desc>SVG generated by Keynote</desc><defs></defs><g transform="matrix(1.00, 0.00, -0.00, -1.00, 0.0, 768.0)"><path d="M 0.0 768.0 L 1024.0 768.0 L 1024.0 0.0 L 0.0 0.0 Z M 0.0 768.0 " fill="#FEFFFF"></path><image xlink:href="../../293D72A4-E83E-4E39-9173-D2FA125CBD9C/assets/364F746EE65C5D21362C0F105B3A1498.png" width="720.00" height="540.00" transform="matrix(1.42, 0.00, -0.00, -1.42, 0.0, 768.0)"></image><g><clipPath id="clip-1509"><path d="M 222.0 668.0 L 392.0 668.0 L 392.0 603.0 L 222.0 603.0 Z M 222.2 667.8 "></path></clipPath><g clip-path="url(#clip-1509)"><image xlink:href="../../293D72A4-E83E-4E39-9173-D2FA125CBD9C/assets/B629A8BA9595ED1035329D5530593FA4.png" width="170.00" height="65.00" transform="matrix(1.00, 0.00, -0.00, -1.00, 222.0, 668.0)"></image></g></g><g><clipPath id="clip-1510"><path d="M 222.0 587.0 L 392.0 587.0 L 392.0 522.0 L 222.0 522.0 Z M 222.2 587.2 "></path></clipPath><g clip-path="url(#clip-1510)"><image xlink:href="../../293D72A4-E83E-4E39-9173-D2FA125CBD9C/assets/B629A8BA9595ED1035329D5530593FA4.png" width="170.00" height="65.00" transform="matrix(1.00, 0.00, -0.00, -1.00, 222.0, 587.0)"></image></g></g><g><clipPath id="clip-1511"><path d="M 222.0 502.0 L 392.0 502.0 L 392.0 437.0 L 222.0 437.0 Z M 222.2 501.8 "></path></clipPath><g clip-path="url(#clip-1511)"><image xlink:href="../../293D72A4-E83E-4E39-9173-D2FA125CBD9C/assets/B629A8BA9595ED1035329D5530593FA4.png" width="170.00" height="65.00" transform="matrix(1.00, 0.00, -0.00, -1.00, 222.0, 502.0)"></image></g></g><g><clipPath id="clip-1512"><path d="M 222.0 417.0 L 392.0 417.0 L 392.0 352.0 L 222.0 352.0 Z M 222.2 416.5 "></path></clipPath><g clip-path="url(#clip-1512)"><image xlink:href="../../293D72A4-E83E-4E39-9173-D2FA125CBD9C/assets/B629A8BA9595ED1035329D5530593FA4.png" width="170.00" height="65.00" transform="matrix(1.00, 0.00, -0.00, -1.00, 222.0, 416.0)"></image></g></g><g><clipPath id="clip-1513"><path d="M 222.0 331.0 L 392.0 331.0 L 392.0 266.0 L 222.0 266.0 Z M 222.2 331.2 "></path></clipPath><g clip-path="url(#clip-1513)"><image xlink:href="../../293D72A4-E83E-4E39-9173-D2FA125CBD9C/assets/B629A8BA9595ED1035329D5530593FA4.png" width="170.00" height="65.00" transform="matrix(1.00, 0.00, -0.00, -1.00, 222.0, 331.0)"></image></g></g><g><clipPath id="clip-1514"><path d="M 222.0 246.0 L 392.0 246.0 L 392.0 181.0 L 222.0 181.0 Z M 222.2 245.8 "></path></clipPath><g clip-path="url(#clip-1514)"><image xlink:href="../../293D72A4-E83E-4E39-9173-D2FA125CBD9C/assets/B629A8BA9595ED1035329D5530593FA4.png" width="170.00" height="65.00" transform="matrix(1.00, 0.00, -0.00, -1.00, 222.0, 246.0)"></image></g></g><g><clipPath id="clip-1515"><path d="M 222.0 161.0 L 392.0 161.0 L 392.0 96.0 L 222.0 96.0 Z M 222.2 160.5 "></path></clipPath><g clip-path="url(#clip-1515)"><image xlink:href="../../293D72A4-E83E-4E39-9173-D2FA125CBD9C/assets/B629A8BA9595ED1035329D5530593FA4.png" width="170.00" height="65.00" transform="matrix(1.00, 0.00, -0.00, -1.00, 222.0, 160.0)"></image></g></g><g><clipPath id="clip-1516"><path d="M 222.0 75.0 L 392.0 75.0 L 392.0 10.0 L 222.0 10.0 Z M 222.2 75.2 "></path></clipPath><g clip-path="url(#clip-1516)"><image xlink:href="../../293D72A4-E83E-4E39-9173-D2FA125CBD9C/assets/B629A8BA9595ED1035329D5530593FA4.png" width="170.00" height="65.00" transform="matrix(1.00, 0.00, -0.00, -1.00, 222.0, 75.0)"></image></g></g><g><clipPath id="clip-1517"><path d="M 429.0 668.0 L 599.0 668.0 L 599.0 603.0 L 429.0 603.0 Z M 429.2 667.8 "></path></clipPath><g clip-path="url(#clip-1517)"><image xlink:href="../../293D72A4-E83E-4E39-9173-D2FA125CBD9C/assets/B629A8BA9595ED1035329D5530593FA4.png" width="170.00" height="65.00" transform="matrix(1.00, 0.00, -0.00, -1.00, 429.0, 668.0)"></image></g></g><g><clipPath id="clip-1518"><path d="M 429.0 587.0 L 599.0 587.0 L 599.0 522.0 L 429.0 522.0 Z M 429.2 587.2 "></path></clipPath><g clip-path="url(#clip-1518)"><image xlink:href="../../293D72A4-E83E-4E39-9173-D2FA125CBD9C/assets/B629A8BA9595ED1035329D5530593FA4.png" width="170.00" height="65.00" transform="matrix(1.00, 0.00, -0.00, -1.00, 429.0, 587.0)"></image></g></g><g><clipPath id="clip-1519"><path d="M 429.0 502.0 L 599.0 502.0 L 599.0 437.0 L 429.0 437.0 Z M 429.2 501.8 "></path></clipPath><g clip-path="url(#clip-1519)"><image xlink:href="../../293D72A4-E83E-4E39-9173-D2FA125CBD9C/assets/B629A8BA9595ED1035329D5530593FA4.png" width="170.00" height="65.00" transform="matrix(1.00, 0.00, -0.00, -1.00, 429.0, 502.0)"></image></g></g><g><clipPath id="clip-1520"><path d="M 429.0 417.0 L 599.0 417.0 L 599.0 352.0 L 429.0 352.0 Z M 429.2 416.5 "></path></clipPath><g clip-path="url(#clip-1520)"><image xlink:href="../../293D72A4-E83E-4E39-9173-D2FA125CBD9C/assets/B629A8BA9595ED1035329D5530593FA4.png" width="170.00" height="65.00" transform="matrix(1.00, 0.00, -0.00, -1.00, 429.0, 416.0)"></image></g></g><g><clipPath id="clip-1521"><path d="M 429.0 331.0 L 599.0 331.0 L 599.0 266.0 L 429.0 266.0 Z M 429.2 331.2 "></path></clipPath><g clip-path="url(#clip-1521)"><image xlink:href="../../293D72A4-E83E-4E39-9173-D2FA125CBD9C/assets/B629A8BA9595ED1035329D5530593FA4.png" width="170.00" height="65.00" transform="matrix(1.00, 0.00, -0.00, -1.00, 429.0, 331.0)"></image></g></g><g><clipPath id="clip-1522"><path d="M 429.0 246.0 L 599.0 246.0 L 599.0 181.0 L 429.0 181.0 Z M 429.2 245.8 "></path></clipPath><g clip-path="url(#clip-1522)"><image xlink:href="../../293D72A4-E83E-4E39-9173-D2FA125CBD9C/assets/B629A8BA9595ED1035329D5530593FA4.png" width="170.00" height="65.00" transform="matrix(1.00, 0.00, -0.00, -1.00, 429.0, 246.0)"></image></g></g><g><clipPath id="clip-1523"><path d="M 429.0 161.0 L 599.0 161.0 L 599.0 96.0 L 429.0 96.0 Z M 429.2 160.5 "></path></clipPath><g clip-path="url(#clip-1523)"><image xlink:href="../../293D72A4-E83E-4E39-9173-D2FA125CBD9C/assets/B629A8BA9595ED1035329D5530593FA4.png" width="170.00" height="65.00" transform="matrix(1.00, 0.00, -0.00, -1.00, 429.0, 160.0)"></image></g></g><g><clipPath id="clip-1524"><path d="M 429.0 75.0 L 599.0 75.0 L 599.0 10.0 L 429.0 10.0 Z M 429.2 75.2 "></path></clipPath><g clip-path="url(#clip-1524)"><image xlink:href="../../293D72A4-E83E-4E39-9173-D2FA125CBD9C/assets/B629A8BA9595ED1035329D5530593FA4.png" width="170.00" height="65.00" transform="matrix(1.00, 0.00, -0.00, -1.00, 429.0, 75.0)"></image></g></g><g><clipPath id="clip-1525"><path d="M 632.0 668.0 L 802.0 668.0 L 802.0 603.0 L 632.0 603.0 Z M 631.8 667.8 "></path></clipPath><g clip-path="url(#clip-1525)"><image xlink:href="../../293D72A4-E83E-4E39-9173-D2FA125CBD9C/assets/B629A8BA9595ED1035329D5530593FA4.png" width="170.00" height="65.00" transform="matrix(1.00, 0.00, -0.00, -1.00, 632.0, 668.0)"></image></g></g><g><clipPath id="clip-1526"><path d="M 632.0 587.0 L 802.0 587.0 L 802.0 522.0 L 632.0 522.0 Z M 631.8 587.2 "></path></clipPath><g clip-path="url(#clip-1526)"><image xlink:href="../../293D72A4-E83E-4E39-9173-D2FA125CBD9C/assets/B629A8BA9595ED1035329D5530593FA4.png" width="170.00" height="65.00" transform="matrix(1.00, 0.00, -0.00, -1.00, 632.0, 587.0)"></image></g></g><g><clipPath id="clip-1527"><path d="M 632.0 502.0 L 802.0 502.0 L 802.0 437.0 L 632.0 437.0 Z M 631.8 501.8 "></path></clipPath><g clip-path="url(#clip-1527)"><image xlink:href="../../293D72A4-E83E-4E39-9173-D2FA125CBD9C/assets/B629A8BA9595ED1035329D5530593FA4.png" width="170.00" height="65.00" transform="matrix(1.00, 0.00, -0.00, -1.00, 632.0, 502.0)"></image></g></g><g><clipPath id="clip-1528"><path d="M 632.0 417.0 L 802.0 417.0 L 802.0 352.0 L 632.0 352.0 Z M 631.8 416.5 "></path></clipPath><g clip-path="url(#clip-1528)"><image xlink:href="../../293D72A4-E83E-4E39-9173-D2FA125CBD9C/assets/B629A8BA9595ED1035329D5530593FA4.png" width="170.00" height="65.00" transform="matrix(1.00, 0.00, -0.00, -1.00, 632.0, 416.0)"></image></g></g><g><clipPath id="clip-1529"><path d="M 632.0 331.0 L 802.0 331.0 L 802.0 266.0 L 632.0 266.0 Z M 631.8 331.2 "></path></clipPath><g clip-path="url(#clip-1529)"><image xlink:href="../../293D72A4-E83E-4E39-9173-D2FA125CBD9C/assets/B629A8BA9595ED1035329D5530593FA4.png" width="170.00" height="65.00" transform="matrix(1.00, 0.00, -0.00, -1.00, 632.0, 331.0)"></image></g></g><g><clipPath id="clip-1530"><path d="M 632.0 246.0 L 802.0 246.0 L 802.0 181.0 L 632.0 181.0 Z M 631.8 245.8 "></path></clipPath><g clip-path="url(#clip-1530)"><image xlink:href="../../293D72A4-E83E-4E39-9173-D2FA125CBD9C/assets/B629A8BA9595ED1035329D5530593FA4.png" width="170.00" height="65.00" transform="matrix(1.00, 0.00, -0.00, -1.00, 632.0, 246.0)"></image></g></g><g><clipPath id="clip-1531"><path d="M 632.0 161.0 L 802.0 161.0 L 802.0 96.0 L 632.0 96.0 Z M 631.8 160.5 "></path></clipPath><g clip-path="url(#clip-1531)"><image xlink:href="../../293D72A4-E83E-4E39-9173-D2FA125CBD9C/assets/B629A8BA9595ED1035329D5530593FA4.png" width="170.00" height="65.00" transform="matrix(1.00, 0.00, -0.00, -1.00, 632.0, 160.0)"></image></g></g><g><clipPath id="clip-1532"><path d="M 632.0 75.0 L 802.0 75.0 L 802.0 10.0 L 632.0 10.0 Z M 631.8 75.2 "></path></clipPath><g clip-path="url(#clip-1532)"><image xlink:href="../../293D72A4-E83E-4E39-9173-D2FA125CBD9C/assets/B629A8BA9595ED1035329D5530593FA4.png" width="170.00" height="65.00" transform="matrix(1.00, 0.00, -0.00, -1.00, 632.0, 75.0)"></image></g></g><g><clipPath id="clip-1533"><path d="M 837.0 668.0 L 1007.0 668.0 L 1007.0 603.0 L 837.0 603.0 Z M 836.6 667.8 "></path></clipPath><g clip-path="url(#clip-1533)"><image xlink:href="../../293D72A4-E83E-4E39-9173-D2FA125CBD9C/assets/B629A8BA9595ED1035329D5530593FA4.png" width="170.00" height="65.00" transform="matrix(1.00, 0.00, -0.00, -1.00, 837.0, 668.0)"></image></g></g><g><clipPath id="clip-1534"><path d="M 837.0 587.0 L 1007.0 587.0 L 1007.0 522.0 L 837.0 522.0 Z M 836.6 587.2 "></path></clipPath><g clip-path="url(#clip-1534)"><image xlink:href="../../293D72A4-E83E-4E39-9173-D2FA125CBD9C/assets/B629A8BA9595ED1035329D5530593FA4.png" width="170.00" height="65.00" transform="matrix(1.00, 0.00, -0.00, -1.00, 837.0, 587.0)"></image></g></g><g><clipPath id="clip-1535"><path d="M 837.0 502.0 L 1007.0 502.0 L 1007.0 437.0 L 837.0 437.0 Z M 836.6 501.8 "></path></clipPath><g clip-path="url(#clip-1535)"><image xlink:href="../../293D72A4-E83E-4E39-9173-D2FA125CBD9C/assets/B629A8BA9595ED1035329D5530593FA4.png" width="170.00" height="65.00" transform="matrix(1.00, 0.00, -0.00, -1.00, 837.0, 502.0)"></image></g></g><g><clipPath id="clip-1536"><path d="M 837.0 417.0 L 1007.0 417.0 L 1007.0 352.0 L 837.0 352.0 Z M 836.6 416.5 "></path></clipPath><g clip-path="url(#clip-1536)"><image xlink:href="../../293D72A4-E83E-4E39-9173-D2FA125CBD9C/assets/B629A8BA9595ED1035329D5530593FA4.png" width="170.00" height="65.00" transform="matrix(1.00, 0.00, -0.00, -1.00, 837.0, 416.0)"></image></g></g><g><clipPath id="clip-1537"><path d="M 837.0 331.0 L 1007.0 331.0 L 1007.0 266.0 L 837.0 266.0 Z M 836.6 331.2 "></path></clipPath><g clip-path="url(#clip-1537)"><image xlink:href="../../293D72A4-E83E-4E39-9173-D2FA125CBD9C/assets/B629A8BA9595ED1035329D5530593FA4.png" width="170.00" height="65.00" transform="matrix(1.00, 0.00, -0.00, -1.00, 837.0, 331.0)"></image></g></g><g><clipPath id="clip-1538"><path d="M 837.0 246.0 L 1007.0 246.0 L 1007.0 181.0 L 837.0 181.0 Z M 836.6 245.8 "></path></clipPath><g clip-path="url(#clip-1538)"><image xlink:href="../../293D72A4-E83E-4E39-9173-D2FA125CBD9C/assets/B629A8BA9595ED1035329D5530593FA4.png" width="170.00" height="65.00" transform="matrix(1.00, 0.00, -0.00, -1.00, 837.0, 246.0)"></image></g></g><g><clipPath id="clip-1539"><path d="M 837.0 161.0 L 1007.0 161.0 L 1007.0 96.0 L 837.0 96.0 Z M 836.6 160.5 "></path></clipPath><g clip-path="url(#clip-1539)"><image xlink:href="../../293D72A4-E83E-4E39-9173-D2FA125CBD9C/assets/B629A8BA9595ED1035329D5530593FA4.png" width="170.00" height="65.00" transform="matrix(1.00, 0.00, -0.00, -1.00, 837.0, 160.0)"></image></g></g><g><clipPath id="clip-1540"><path d="M 837.0 75.0 L 1007.0 75.0 L 1007.0 10.0 L 837.0 10.0 Z M 836.6 75.2 "></path></clipPath><g clip-path="url(#clip-1540)"><image xlink:href="../../293D72A4-E83E-4E39-9173-D2FA125CBD9C/assets/B629A8BA9595ED1035329D5530593FA4.png" width="170.00" height="65.00" transform="matrix(1.00, 0.00, -0.00, -1.00, 837.0, 75.0)"></image></g></g></g></svg>