<?xml version="1.0" encoding="UTF-8" standalone="no"?><svg xmlns="http://www.w3.org/2000/svg" xmlns:xlink="http://www.w3.org/1999/xlink" clip-rule="evenodd" stroke-miterlimit="4.00" viewBox="0 0 1024 768"><desc>SVG generated by Keynote</desc><defs></defs><g transform="matrix(1.00, 0.00, -0.00, -1.00, 0.0, 768.0)"><path d="M 0.0 768.0 L 1024.0 768.0 L 1024.0 0.0 L 0.0 0.0 Z M 0.0 768.0 " fill="#FEFFFF"></path><image xlink:href="../../293D72A4-E83E-4E39-9173-D2FA125CBD9C/assets/364F746EE65C5D21362C0F105B3A1498.png" width="720.00" height="540.00" transform="matrix(1.42, 0.00, -0.00, -1.42, 0.0, 768.0)"></image><g><clipPath id="clip-1221"><path d="M 222.0 668.0 L 392.0 668.0 L 392.0 603.0 L 222.0 603.0 Z M 222.2 667.8 "></path></clipPath><g clip-path="url(#clip-1221)"><image xlink:href="../../11EA4C3E-3C9F-45F0-AC91-CB1322F84EB8/assets/4CDAA08A53443DDBCB58A60D5B653F06.png" width="170.00" height="65.00" transform="matrix(1.00, 0.00, -0.00, -1.00, 222.0, 668.0)"></image></g></g><g><clipPath id="clip-1222"><path d="M 222.0 587.0 L 392.0 587.0 L 392.0 522.0 L 222.0 522.0 Z M 222.2 587.2 "></path></clipPath><g clip-path="url(#clip-1222)"><image xlink:href="../../11EA4C3E-3C9F-45F0-AC91-CB1322F84EB8/assets/4CDAA08A53443DDBCB58A60D5B653F06.png" width="170.00" height="65.00" transform="matrix(1.00, 0.00, -0.00, -1.00, 222.0, 587.0)"></image></g></g><g><clipPath id="clip-1223"><path d="M 222.0 502.0 L 392.0 502.0 L 392.0 437.0 L 222.0 437.0 Z M 222.2 501.8 "></path></clipPath><g clip-path="url(#clip-1223)"><image xlink:href="../../11EA4C3E-3C9F-45F0-AC91-CB1322F84EB8/assets/4CDAA08A53443DDBCB58A60D5B653F06.png" width="170.00" height="65.00" transform="matrix(1.00, 0.00, -0.00, -1.00, 222.0, 502.0)"></image></g></g><g><clipPath id="clip-1224"><path d="M 222.0 417.0 L 392.0 417.0 L 392.0 352.0 L 222.0 352.0 Z M 222.2 416.5 "></path></clipPath><g clip-path="url(#clip-1224)"><image xlink:href="../../11EA4C3E-3C9F-45F0-AC91-CB1322F84EB8/assets/4CDAA08A53443DDBCB58A60D5B653F06.png" width="170.00" height="65.00" transform="matrix(1.00, 0.00, -0.00, -1.00, 222.0, 416.0)"></image></g></g><g><clipPath id="clip-1225"><path d="M 222.0 331.0 L 392.0 331.0 L 392.0 266.0 L 222.0 266.0 Z M 222.2 331.2 "></path></clipPath><g clip-path="url(#clip-1225)"><image xlink:href="../../11EA4C3E-3C9F-45F0-AC91-CB1322F84EB8/assets/4CDAA08A53443DDBCB58A60D5B653F06.png" width="170.00" height="65.00" transform="matrix(1.00, 0.00, -0.00, -1.00, 222.0, 331.0)"></image></g></g><g><clipPath id="clip-1226"><path d="M 222.0 246.0 L 392.0 246.0 L 392.0 181.0 L 222.0 181.0 Z M 222.2 245.8 "></path></clipPath><g clip-path="url(#clip-1226)"><image xlink:href="../../11EA4C3E-3C9F-45F0-AC91-CB1322F84EB8/assets/4CDAA08A53443DDBCB58A60D5B653F06.png" width="170.00" height="65.00" transform="matrix(1.00, 0.00, -0.00, -1.00, 222.0, 246.0)"></image></g></g><g><clipPath id="clip-1227"><path d="M 222.0 161.0 L 392.0 161.0 L 392.0 96.0 L 222.0 96.0 Z M 222.2 160.5 "></path></clipPath><g clip-path="url(#clip-1227)"><image xlink:href="../../11EA4C3E-3C9F-45F0-AC91-CB1322F84EB8/assets/4CDAA08A53443DDBCB58A60D5B653F06.png" width="170.00" height="65.00" transform="matrix(1.00, 0.00, -0.00, -1.00, 222.0, 160.0)"></image></g></g><g><clipPath id="clip-1228"><path d="M 222.0 75.0 L 392.0 75.0 L 392.0 10.0 L 222.0 10.0 Z M 222.2 75.2 "></path></clipPath><g clip-path="url(#clip-1228)"><image xlink:href="../../11EA4C3E-3C9F-45F0-AC91-CB1322F84EB8/assets/4CDAA08A53443DDBCB58A60D5B653F06.png" width="170.00" height="65.00" transform="matrix(1.00, 0.00, -0.00, -1.00, 222.0, 75.0)"></image></g></g><g><clipPath id="clip-1229"><path d="M 429.0 668.0 L 599.0 668.0 L 599.0 603.0 L 429.0 603.0 Z M 429.2 667.8 "></path></clipPath><g clip-path="url(#clip-1229)"><image xlink:href="../../11EA4C3E-3C9F-45F0-AC91-CB1322F84EB8/assets/4CDAA08A53443DDBCB58A60D5B653F06.png" width="170.00" height="65.00" transform="matrix(1.00, 0.00, -0.00, -1.00, 429.0, 668.0)"></image></g></g><g><clipPath id="clip-1230"><path d="M 429.0 587.0 L 599.0 587.0 L 599.0 522.0 L 429.0 522.0 Z M 429.2 587.2 "></path></clipPath><g clip-path="url(#clip-1230)"><image xlink:href="../../11EA4C3E-3C9F-45F0-AC91-CB1322F84EB8/assets/4CDAA08A53443DDBCB58A60D5B653F06.png" width="170.00" height="65.00" transform="matrix(1.00, 0.00, -0.00, -1.00, 429.0, 587.0)"></image></g></g><g><clipPath id="clip-1231"><path d="M 429.0 502.0 L 599.0 502.0 L 599.0 437.0 L 429.0 437.0 Z M 429.2 501.8 "></path></clipPath><g clip-path="url(#clip-1231)"><image xlink:href="../../11EA4C3E-3C9F-45F0-AC91-CB1322F84EB8/assets/4CDAA08A53443DDBCB58A60D5B653F06.png" width="170.00" height="65.00" transform="matrix(1.00, 0.00, -0.00, -1.00, 429.0, 502.0)"></image></g></g><g><clipPath id="clip-1232"><path d="M 429.0 417.0 L 599.0 417.0 L 599.0 352.0 L 429.0 352.0 Z M 429.2 416.5 "></path></clipPath><g clip-path="url(#clip-1232)"><image xlink:href="../../11EA4C3E-3C9F-45F0-AC91-CB1322F84EB8/assets/4CDAA08A53443DDBCB58A60D5B653F06.png" width="170.00" height="65.00" transform="matrix(1.00, 0.00, -0.00, -1.00, 429.0, 416.0)"></image></g></g><g><clipPath id="clip-1233"><path d="M 429.0 331.0 L 599.0 331.0 L 599.0 266.0 L 429.0 266.0 Z M 429.2 331.2 "></path></clipPath><g clip-path="url(#clip-1233)"><image xlink:href="../../11EA4C3E-3C9F-45F0-AC91-CB1322F84EB8/assets/4CDAA08A53443DDBCB58A60D5B653F06.png" width="170.00" height="65.00" transform="matrix(1.00, 0.00, -0.00, -1.00, 429.0, 331.0)"></image></g></g><g><clipPath id="clip-1234"><path d="M 429.0 246.0 L 599.0 246.0 L 599.0 181.0 L 429.0 181.0 Z M 429.2 245.8 "></path></clipPath><g clip-path="url(#clip-1234)"><image xlink:href="../../11EA4C3E-3C9F-45F0-AC91-CB1322F84EB8/assets/4CDAA08A53443DDBCB58A60D5B653F06.png" width="170.00" height="65.00" transform="matrix(1.00, 0.00, -0.00, -1.00, 429.0, 246.0)"></image></g></g><g><clipPath id="clip-1235"><path d="M 429.0 161.0 L 599.0 161.0 L 599.0 96.0 L 429.0 96.0 Z M 429.2 160.5 "></path></clipPath><g clip-path="url(#clip-1235)"><image xlink:href="../../11EA4C3E-3C9F-45F0-AC91-CB1322F84EB8/assets/4CDAA08A53443DDBCB58A60D5B653F06.png" width="170.00" height="65.00" transform="matrix(1.00, 0.00, -0.00, -1.00, 429.0, 160.0)"></image></g></g><g><clipPath id="clip-1236"><path d="M 429.0 75.0 L 599.0 75.0 L 599.0 10.0 L 429.0 10.0 Z M 429.2 75.2 "></path></clipPath><g clip-path="url(#clip-1236)"><image xlink:href="../../11EA4C3E-3C9F-45F0-AC91-CB1322F84EB8/assets/4CDAA08A53443DDBCB58A60D5B653F06.png" width="170.00" height="65.00" transform="matrix(1.00, 0.00, -0.00, -1.00, 429.0, 75.0)"></image></g></g><g><clipPath id="clip-1237"><path d="M 632.0 668.0 L 802.0 668.0 L 802.0 603.0 L 632.0 603.0 Z M 631.8 667.8 "></path></clipPath><g clip-path="url(#clip-1237)"><image xlink:href="../../11EA4C3E-3C9F-45F0-AC91-CB1322F84EB8/assets/4CDAA08A53443DDBCB58A60D5B653F06.png" width="170.00" height="65.00" transform="matrix(1.00, 0.00, -0.00, -1.00, 632.0, 668.0)"></image></g></g><g><clipPath id="clip-1238"><path d="M 632.0 587.0 L 802.0 587.0 L 802.0 522.0 L 632.0 522.0 Z M 631.8 587.2 "></path></clipPath><g clip-path="url(#clip-1238)"><image xlink:href="../../11EA4C3E-3C9F-45F0-AC91-CB1322F84EB8/assets/4CDAA08A53443DDBCB58A60D5B653F06.png" width="170.00" height="65.00" transform="matrix(1.00, 0.00, -0.00, -1.00, 632.0, 587.0)"></image></g></g><g><clipPath id="clip-1239"><path d="M 632.0 502.0 L 802.0 502.0 L 802.0 437.0 L 632.0 437.0 Z M 631.8 501.8 "></path></clipPath><g clip-path="url(#clip-1239)"><image xlink:href="../../11EA4C3E-3C9F-45F0-AC91-CB1322F84EB8/assets/4CDAA08A53443DDBCB58A60D5B653F06.png" width="170.00" height="65.00" transform="matrix(1.00, 0.00, -0.00, -1.00, 632.0, 502.0)"></image></g></g><g><clipPath id="clip-1240"><path d="M 632.0 417.0 L 802.0 417.0 L 802.0 352.0 L 632.0 352.0 Z M 631.8 416.5 "></path></clipPath><g clip-path="url(#clip-1240)"><image xlink:href="../../11EA4C3E-3C9F-45F0-AC91-CB1322F84EB8/assets/4CDAA08A53443DDBCB58A60D5B653F06.png" width="170.00" height="65.00" transform="matrix(1.00, 0.00, -0.00, -1.00, 632.0, 416.0)"></image></g></g><g><clipPath id="clip-1241"><path d="M 632.0 331.0 L 802.0 331.0 L 802.0 266.0 L 632.0 266.0 Z M 631.8 331.2 "></path></clipPath><g clip-path="url(#clip-1241)"><image xlink:href="../../11EA4C3E-3C9F-45F0-AC91-CB1322F84EB8/assets/4CDAA08A53443DDBCB58A60D5B653F06.png" width="170.00" height="65.00" transform="matrix(1.00, 0.00, -0.00, -1.00, 632.0, 331.0)"></image></g></g><g><clipPath id="clip-1242"><path d="M 632.0 246.0 L 802.0 246.0 L 802.0 181.0 L 632.0 181.0 Z M 631.8 245.8 "></path></clipPath><g clip-path="url(#clip-1242)"><image xlink:href="../../11EA4C3E-3C9F-45F0-AC91-CB1322F84EB8/assets/4CDAA08A53443DDBCB58A60D5B653F06.png" width="170.00" height="65.00" transform="matrix(1.00, 0.00, -0.00, -1.00, 632.0, 246.0)"></image></g></g><g><clipPath id="clip-1243"><path d="M 632.0 161.0 L 802.0 161.0 L 802.0 96.0 L 632.0 96.0 Z M 631.8 160.5 "></path></clipPath><g clip-path="url(#clip-1243)"><image xlink:href="../../11EA4C3E-3C9F-45F0-AC91-CB1322F84EB8/assets/4CDAA08A53443DDBCB58A60D5B653F06.png" width="170.00" height="65.00" transform="matrix(1.00, 0.00, -0.00, -1.00, 632.0, 160.0)"></image></g></g><g><clipPath id="clip-1244"><path d="M 632.0 75.0 L 802.0 75.0 L 802.0 10.0 L 632.0 10.0 Z M 631.8 75.2 "></path></clipPath><g clip-path="url(#clip-1244)"><image xlink:href="../../11EA4C3E-3C9F-45F0-AC91-CB1322F84EB8/assets/4CDAA08A53443DDBCB58A60D5B653F06.png" width="170.00" height="65.00" transform="matrix(1.00, 0.00, -0.00, -1.00, 632.0, 75.0)"></image></g></g><g><clipPath id="clip-1245"><path d="M 837.0 668.0 L 1007.0 668.0 L 1007.0 603.0 L 837.0 603.0 Z M 836.6 667.8 "></path></clipPath><g clip-path="url(#clip-1245)"><image xlink:href="../../11EA4C3E-3C9F-45F0-AC91-CB1322F84EB8/assets/4CDAA08A53443DDBCB58A60D5B653F06.png" width="170.00" height="65.00" transform="matrix(1.00, 0.00, -0.00, -1.00, 837.0, 668.0)"></image></g></g><g><clipPath id="clip-1246"><path d="M 837.0 587.0 L 1007.0 587.0 L 1007.0 522.0 L 837.0 522.0 Z M 836.6 587.2 "></path></clipPath><g clip-path="url(#clip-1246)"><image xlink:href="../../11EA4C3E-3C9F-45F0-AC91-CB1322F84EB8/assets/4CDAA08A53443DDBCB58A60D5B653F06.png" width="170.00" height="65.00" transform="matrix(1.00, 0.00, -0.00, -1.00, 837.0, 587.0)"></image></g></g><g><clipPath id="clip-1247"><path d="M 837.0 502.0 L 1007.0 502.0 L 1007.0 437.0 L 837.0 437.0 Z M 836.6 501.8 "></path></clipPath><g clip-path="url(#clip-1247)"><image xlink:href="../../11EA4C3E-3C9F-45F0-AC91-CB1322F84EB8/assets/4CDAA08A53443DDBCB58A60D5B653F06.png" width="170.00" height="65.00" transform="matrix(1.00, 0.00, -0.00, -1.00, 837.0, 502.0)"></image></g></g><g><clipPath id="clip-1248"><path d="M 837.0 417.0 L 1007.0 417.0 L 1007.0 352.0 L 837.0 352.0 Z M 836.6 416.5 "></path></clipPath><g clip-path="url(#clip-1248)"><image xlink:href="../../11EA4C3E-3C9F-45F0-AC91-CB1322F84EB8/assets/4CDAA08A53443DDBCB58A60D5B653F06.png" width="170.00" height="65.00" transform="matrix(1.00, 0.00, -0.00, -1.00, 837.0, 416.0)"></image></g></g><g><clipPath id="clip-1249"><path d="M 837.0 331.0 L 1007.0 331.0 L 1007.0 266.0 L 837.0 266.0 Z M 836.6 331.2 "></path></clipPath><g clip-path="url(#clip-1249)"><image xlink:href="../../11EA4C3E-3C9F-45F0-AC91-CB1322F84EB8/assets/4CDAA08A53443DDBCB58A60D5B653F06.png" width="170.00" height="65.00" transform="matrix(1.00, 0.00, -0.00, -1.00, 837.0, 331.0)"></image></g></g><g><clipPath id="clip-1250"><path d="M 837.0 246.0 L 1007.0 246.0 L 1007.0 181.0 L 837.0 181.0 Z M 836.6 245.8 "></path></clipPath><g clip-path="url(#clip-1250)"><image xlink:href="../../11EA4C3E-3C9F-45F0-AC91-CB1322F84EB8/assets/4CDAA08A53443DDBCB58A60D5B653F06.png" width="170.00" height="65.00" transform="matrix(1.00, 0.00, -0.00, -1.00, 837.0, 246.0)"></image></g></g><g><clipPath id="clip-1251"><path d="M 837.0 161.0 L 1007.0 161.0 L 1007.0 96.0 L 837.0 96.0 Z M 836.6 160.5 "></path></clipPath><g clip-path="url(#clip-1251)"><image xlink:href="../../11EA4C3E-3C9F-45F0-AC91-CB1322F84EB8/assets/4CDAA08A53443DDBCB58A60D5B653F06.png" width="170.00" height="65.00" transform="matrix(1.00, 0.00, -0.00, -1.00, 837.0, 160.0)"></image></g></g><g><clipPath id="clip-1252"><path d="M 837.0 75.0 L 1007.0 75.0 L 1007.0 10.0 L 837.0 10.0 Z M 836.6 75.2 "></path></clipPath><g clip-path="url(#clip-1252)"><image xlink:href="../../11EA4C3E-3C9F-45F0-AC91-CB1322F84EB8/assets/4CDAA08A53443DDBCB58A60D5B653F06.png" width="170.00" height="65.00" transform="matrix(1.00, 0.00, -0.00, -1.00, 837.0, 75.0)"></image></g></g></g></svg>