<?xml version="1.0" encoding="UTF-8" standalone="no"?><svg xmlns="http://www.w3.org/2000/svg" xmlns:xlink="http://www.w3.org/1999/xlink" clip-rule="evenodd" stroke-miterlimit="4.00" viewBox="0 0 1024 768"><desc>SVG generated by Keynote</desc><defs></defs><g transform="matrix(1.00, 0.00, -0.00, -1.00, 0.0, 768.0)"><path d="M 0.0 768.0 L 1024.0 768.0 L 1024.0 0.0 L 0.0 0.0 Z M 0.0 768.0 " fill="#FEFFFF"></path><image xlink:href="../../293D72A4-E83E-4E39-9173-D2FA125CBD9C/assets/364F746EE65C5D21362C0F105B3A1498.png" width="720.00" height="540.00" transform="matrix(1.42, 0.00, -0.00, -1.42, 0.0, 768.0)"></image><g><clipPath id="clip-973"><path d="M 222.0 668.0 L 392.0 668.0 L 392.0 603.0 L 222.0 603.0 Z M 222.2 667.8 "></path></clipPath><g clip-path="url(#clip-973)"><image xlink:href="../../11EA4C3E-3C9F-45F0-AC91-CB1322F84EB8/assets/4CDAA08A53443DDBCB58A60D5B653F06.png" width="170.00" height="65.00" transform="matrix(1.00, 0.00, -0.00, -1.00, 222.0, 668.0)"></image></g></g><g><clipPath id="clip-974"><path d="M 222.0 587.0 L 392.0 587.0 L 392.0 522.0 L 222.0 522.0 Z M 222.2 587.2 "></path></clipPath><g clip-path="url(#clip-974)"><image xlink:href="../../11EA4C3E-3C9F-45F0-AC91-CB1322F84EB8/assets/4CDAA08A53443DDBCB58A60D5B653F06.png" width="170.00" height="65.00" transform="matrix(1.00, 0.00, -0.00, -1.00, 222.0, 587.0)"></image></g></g><g><clipPath id="clip-975"><path d="M 222.0 502.0 L 392.0 502.0 L 392.0 437.0 L 222.0 437.0 Z M 222.2 501.8 "></path></clipPath><g clip-path="url(#clip-975)"><image xlink:href="../../11EA4C3E-3C9F-45F0-AC91-CB1322F84EB8/assets/4CDAA08A53443DDBCB58A60D5B653F06.png" width="170.00" height="65.00" transform="matrix(1.00, 0.00, -0.00, -1.00, 222.0, 502.0)"></image></g></g><g><clipPath id="clip-976"><path d="M 222.0 417.0 L 392.0 417.0 L 392.0 352.0 L 222.0 352.0 Z M 222.2 416.5 "></path></clipPath><g clip-path="url(#clip-976)"><image xlink:href="../../11EA4C3E-3C9F-45F0-AC91-CB1322F84EB8/assets/4CDAA08A53443DDBCB58A60D5B653F06.png" width="170.00" height="65.00" transform="matrix(1.00, 0.00, -0.00, -1.00, 222.0, 416.0)"></image></g></g><g><clipPath id="clip-977"><path d="M 222.0 331.0 L 392.0 331.0 L 392.0 266.0 L 222.0 266.0 Z M 222.2 331.2 "></path></clipPath><g clip-path="url(#clip-977)"><image xlink:href="../../11EA4C3E-3C9F-45F0-AC91-CB1322F84EB8/assets/4CDAA08A53443DDBCB58A60D5B653F06.png" width="170.00" height="65.00" transform="matrix(1.00, 0.00, -0.00, -1.00, 222.0, 331.0)"></image></g></g><g><clipPath id="clip-978"><path d="M 222.0 246.0 L 392.0 246.0 L 392.0 181.0 L 222.0 181.0 Z M 222.2 245.8 "></path></clipPath><g clip-path="url(#clip-978)"><image xlink:href="../../11EA4C3E-3C9F-45F0-AC91-CB1322F84EB8/assets/4CDAA08A53443DDBCB58A60D5B653F06.png" width="170.00" height="65.00" transform="matrix(1.00, 0.00, -0.00, -1.00, 222.0, 246.0)"></image></g></g><g><clipPath id="clip-979"><path d="M 222.0 161.0 L 392.0 161.0 L 392.0 96.0 L 222.0 96.0 Z M 222.2 160.5 "></path></clipPath><g clip-path="url(#clip-979)"><image xlink:href="../../11EA4C3E-3C9F-45F0-AC91-CB1322F84EB8/assets/4CDAA08A53443DDBCB58A60D5B653F06.png" width="170.00" height="65.00" transform="matrix(1.00, 0.00, -0.00, -1.00, 222.0, 160.0)"></image></g></g><g><clipPath id="clip-980"><path d="M 222.0 75.0 L 392.0 75.0 L 392.0 10.0 L 222.0 10.0 Z M 222.2 75.2 "></path></clipPath><g clip-path="url(#clip-980)"><image xlink:href="../../11EA4C3E-3C9F-45F0-AC91-CB1322F84EB8/assets/4CDAA08A53443DDBCB58A60D5B653F06.png" width="170.00" height="65.00" transform="matrix(1.00, 0.00, -0.00, -1.00, 222.0, 75.0)"></image></g></g><g><clipPath id="clip-981"><path d="M 429.0 668.0 L 599.0 668.0 L 599.0 603.0 L 429.0 603.0 Z M 429.2 667.8 "></path></clipPath><g clip-path="url(#clip-981)"><image xlink:href="../../11EA4C3E-3C9F-45F0-AC91-CB1322F84EB8/assets/4CDAA08A53443DDBCB58A60D5B653F06.png" width="170.00" height="65.00" transform="matrix(1.00, 0.00, -0.00, -1.00, 429.0, 668.0)"></image></g></g><g><clipPath id="clip-982"><path d="M 429.0 587.0 L 599.0 587.0 L 599.0 522.0 L 429.0 522.0 Z M 429.2 587.2 "></path></clipPath><g clip-path="url(#clip-982)"><image xlink:href="../../11EA4C3E-3C9F-45F0-AC91-CB1322F84EB8/assets/4CDAA08A53443DDBCB58A60D5B653F06.png" width="170.00" height="65.00" transform="matrix(1.00, 0.00, -0.00, -1.00, 429.0, 587.0)"></image></g></g><g><clipPath id="clip-983"><path d="M 429.0 502.0 L 599.0 502.0 L 599.0 437.0 L 429.0 437.0 Z M 429.2 501.8 "></path></clipPath><g clip-path="url(#clip-983)"><image xlink:href="../../11EA4C3E-3C9F-45F0-AC91-CB1322F84EB8/assets/4CDAA08A53443DDBCB58A60D5B653F06.png" width="170.00" height="65.00" transform="matrix(1.00, 0.00, -0.00, -1.00, 429.0, 502.0)"></image></g></g><g><clipPath id="clip-984"><path d="M 429.0 417.0 L 599.0 417.0 L 599.0 352.0 L 429.0 352.0 Z M 429.2 416.5 "></path></clipPath><g clip-path="url(#clip-984)"><image xlink:href="../../11EA4C3E-3C9F-45F0-AC91-CB1322F84EB8/assets/4CDAA08A53443DDBCB58A60D5B653F06.png" width="170.00" height="65.00" transform="matrix(1.00, 0.00, -0.00, -1.00, 429.0, 416.0)"></image></g></g><g><clipPath id="clip-985"><path d="M 429.0 331.0 L 599.0 331.0 L 599.0 266.0 L 429.0 266.0 Z M 429.2 331.2 "></path></clipPath><g clip-path="url(#clip-985)"><image xlink:href="../../11EA4C3E-3C9F-45F0-AC91-CB1322F84EB8/assets/4CDAA08A53443DDBCB58A60D5B653F06.png" width="170.00" height="65.00" transform="matrix(1.00, 0.00, -0.00, -1.00, 429.0, 331.0)"></image></g></g><g><clipPath id="clip-986"><path d="M 429.0 246.0 L 599.0 246.0 L 599.0 181.0 L 429.0 181.0 Z M 429.2 245.8 "></path></clipPath><g clip-path="url(#clip-986)"><image xlink:href="../../11EA4C3E-3C9F-45F0-AC91-CB1322F84EB8/assets/4CDAA08A53443DDBCB58A60D5B653F06.png" width="170.00" height="65.00" transform="matrix(1.00, 0.00, -0.00, -1.00, 429.0, 246.0)"></image></g></g><g><clipPath id="clip-987"><path d="M 429.0 161.0 L 599.0 161.0 L 599.0 96.0 L 429.0 96.0 Z M 429.2 160.5 "></path></clipPath><g clip-path="url(#clip-987)"><image xlink:href="../../11EA4C3E-3C9F-45F0-AC91-CB1322F84EB8/assets/4CDAA08A53443DDBCB58A60D5B653F06.png" width="170.00" height="65.00" transform="matrix(1.00, 0.00, -0.00, -1.00, 429.0, 160.0)"></image></g></g><g><clipPath id="clip-988"><path d="M 429.0 75.0 L 599.0 75.0 L 599.0 10.0 L 429.0 10.0 Z M 429.2 75.2 "></path></clipPath><g clip-path="url(#clip-988)"><image xlink:href="../../11EA4C3E-3C9F-45F0-AC91-CB1322F84EB8/assets/4CDAA08A53443DDBCB58A60D5B653F06.png" width="170.00" height="65.00" transform="matrix(1.00, 0.00, -0.00, -1.00, 429.0, 75.0)"></image></g></g><g><clipPath id="clip-989"><path d="M 632.0 668.0 L 802.0 668.0 L 802.0 603.0 L 632.0 603.0 Z M 631.8 667.8 "></path></clipPath><g clip-path="url(#clip-989)"><image xlink:href="../../11EA4C3E-3C9F-45F0-AC91-CB1322F84EB8/assets/4CDAA08A53443DDBCB58A60D5B653F06.png" width="170.00" height="65.00" transform="matrix(1.00, 0.00, -0.00, -1.00, 632.0, 668.0)"></image></g></g><g><clipPath id="clip-990"><path d="M 632.0 587.0 L 802.0 587.0 L 802.0 522.0 L 632.0 522.0 Z M 631.8 587.2 "></path></clipPath><g clip-path="url(#clip-990)"><image xlink:href="../../11EA4C3E-3C9F-45F0-AC91-CB1322F84EB8/assets/4CDAA08A53443DDBCB58A60D5B653F06.png" width="170.00" height="65.00" transform="matrix(1.00, 0.00, -0.00, -1.00, 632.0, 587.0)"></image></g></g><g><clipPath id="clip-991"><path d="M 632.0 502.0 L 802.0 502.0 L 802.0 437.0 L 632.0 437.0 Z M 631.8 501.8 "></path></clipPath><g clip-path="url(#clip-991)"><image xlink:href="../../11EA4C3E-3C9F-45F0-AC91-CB1322F84EB8/assets/4CDAA08A53443DDBCB58A60D5B653F06.png" width="170.00" height="65.00" transform="matrix(1.00, 0.00, -0.00, -1.00, 632.0, 502.0)"></image></g></g><g><clipPath id="clip-992"><path d="M 632.0 417.0 L 802.0 417.0 L 802.0 352.0 L 632.0 352.0 Z M 631.8 416.5 "></path></clipPath><g clip-path="url(#clip-992)"><image xlink:href="../../11EA4C3E-3C9F-45F0-AC91-CB1322F84EB8/assets/4CDAA08A53443DDBCB58A60D5B653F06.png" width="170.00" height="65.00" transform="matrix(1.00, 0.00, -0.00, -1.00, 632.0, 416.0)"></image></g></g><g><clipPath id="clip-993"><path d="M 632.0 331.0 L 802.0 331.0 L 802.0 266.0 L 632.0 266.0 Z M 631.8 331.2 "></path></clipPath><g clip-path="url(#clip-993)"><image xlink:href="../../11EA4C3E-3C9F-45F0-AC91-CB1322F84EB8/assets/4CDAA08A53443DDBCB58A60D5B653F06.png" width="170.00" height="65.00" transform="matrix(1.00, 0.00, -0.00, -1.00, 632.0, 331.0)"></image></g></g><g><clipPath id="clip-994"><path d="M 632.0 246.0 L 802.0 246.0 L 802.0 181.0 L 632.0 181.0 Z M 631.8 245.8 "></path></clipPath><g clip-path="url(#clip-994)"><image xlink:href="../../11EA4C3E-3C9F-45F0-AC91-CB1322F84EB8/assets/4CDAA08A53443DDBCB58A60D5B653F06.png" width="170.00" height="65.00" transform="matrix(1.00, 0.00, -0.00, -1.00, 632.0, 246.0)"></image></g></g><g><clipPath id="clip-995"><path d="M 632.0 161.0 L 802.0 161.0 L 802.0 96.0 L 632.0 96.0 Z M 631.8 160.5 "></path></clipPath><g clip-path="url(#clip-995)"><image xlink:href="../../11EA4C3E-3C9F-45F0-AC91-CB1322F84EB8/assets/4CDAA08A53443DDBCB58A60D5B653F06.png" width="170.00" height="65.00" transform="matrix(1.00, 0.00, -0.00, -1.00, 632.0, 160.0)"></image></g></g><g><clipPath id="clip-996"><path d="M 632.0 75.0 L 802.0 75.0 L 802.0 10.0 L 632.0 10.0 Z M 631.8 75.2 "></path></clipPath><g clip-path="url(#clip-996)"><image xlink:href="../../11EA4C3E-3C9F-45F0-AC91-CB1322F84EB8/assets/4CDAA08A53443DDBCB58A60D5B653F06.png" width="170.00" height="65.00" transform="matrix(1.00, 0.00, -0.00, -1.00, 632.0, 75.0)"></image></g></g><g><clipPath id="clip-997"><path d="M 837.0 668.0 L 1007.0 668.0 L 1007.0 603.0 L 837.0 603.0 Z M 836.6 667.8 "></path></clipPath><g clip-path="url(#clip-997)"><image xlink:href="../../11EA4C3E-3C9F-45F0-AC91-CB1322F84EB8/assets/4CDAA08A53443DDBCB58A60D5B653F06.png" width="170.00" height="65.00" transform="matrix(1.00, 0.00, -0.00, -1.00, 837.0, 668.0)"></image></g></g><g><clipPath id="clip-998"><path d="M 837.0 587.0 L 1007.0 587.0 L 1007.0 522.0 L 837.0 522.0 Z M 836.6 587.2 "></path></clipPath><g clip-path="url(#clip-998)"><image xlink:href="../../11EA4C3E-3C9F-45F0-AC91-CB1322F84EB8/assets/4CDAA08A53443DDBCB58A60D5B653F06.png" width="170.00" height="65.00" transform="matrix(1.00, 0.00, -0.00, -1.00, 837.0, 587.0)"></image></g></g><g><clipPath id="clip-999"><path d="M 837.0 502.0 L 1007.0 502.0 L 1007.0 437.0 L 837.0 437.0 Z M 836.6 501.8 "></path></clipPath><g clip-path="url(#clip-999)"><image xlink:href="../../11EA4C3E-3C9F-45F0-AC91-CB1322F84EB8/assets/4CDAA08A53443DDBCB58A60D5B653F06.png" width="170.00" height="65.00" transform="matrix(1.00, 0.00, -0.00, -1.00, 837.0, 502.0)"></image></g></g><g><clipPath id="clip-1000"><path d="M 837.0 417.0 L 1007.0 417.0 L 1007.0 352.0 L 837.0 352.0 Z M 836.6 416.5 "></path></clipPath><g clip-path="url(#clip-1000)"><image xlink:href="../../11EA4C3E-3C9F-45F0-AC91-CB1322F84EB8/assets/4CDAA08A53443DDBCB58A60D5B653F06.png" width="170.00" height="65.00" transform="matrix(1.00, 0.00, -0.00, -1.00, 837.0, 416.0)"></image></g></g><g><clipPath id="clip-1001"><path d="M 837.0 331.0 L 1007.0 331.0 L 1007.0 266.0 L 837.0 266.0 Z M 836.6 331.2 "></path></clipPath><g clip-path="url(#clip-1001)"><image xlink:href="../../11EA4C3E-3C9F-45F0-AC91-CB1322F84EB8/assets/4CDAA08A53443DDBCB58A60D5B653F06.png" width="170.00" height="65.00" transform="matrix(1.00, 0.00, -0.00, -1.00, 837.0, 331.0)"></image></g></g><g><clipPath id="clip-1002"><path d="M 837.0 246.0 L 1007.0 246.0 L 1007.0 181.0 L 837.0 181.0 Z M 836.6 245.8 "></path></clipPath><g clip-path="url(#clip-1002)"><image xlink:href="../../11EA4C3E-3C9F-45F0-AC91-CB1322F84EB8/assets/4CDAA08A53443DDBCB58A60D5B653F06.png" width="170.00" height="65.00" transform="matrix(1.00, 0.00, -0.00, -1.00, 837.0, 246.0)"></image></g></g><g><clipPath id="clip-1003"><path d="M 837.0 161.0 L 1007.0 161.0 L 1007.0 96.0 L 837.0 96.0 Z M 836.6 160.5 "></path></clipPath><g clip-path="url(#clip-1003)"><image xlink:href="../../11EA4C3E-3C9F-45F0-AC91-CB1322F84EB8/assets/4CDAA08A53443DDBCB58A60D5B653F06.png" width="170.00" height="65.00" transform="matrix(1.00, 0.00, -0.00, -1.00, 837.0, 160.0)"></image></g></g><g><clipPath id="clip-1004"><path d="M 837.0 75.0 L 1007.0 75.0 L 1007.0 10.0 L 837.0 10.0 Z M 836.6 75.2 "></path></clipPath><g clip-path="url(#clip-1004)"><image xlink:href="../../11EA4C3E-3C9F-45F0-AC91-CB1322F84EB8/assets/4CDAA08A53443DDBCB58A60D5B653F06.png" width="170.00" height="65.00" transform="matrix(1.00, 0.00, -0.00, -1.00, 837.0, 75.0)"></image></g></g></g></svg>