<?xml version="1.0" encoding="UTF-8" standalone="no"?><svg xmlns="http://www.w3.org/2000/svg" xmlns:xlink="http://www.w3.org/1999/xlink" clip-rule="evenodd" stroke-miterlimit="4.00" viewBox="0 0 1024 768"><desc>SVG generated by Keynote</desc><defs></defs><g transform="matrix(1.00, 0.00, -0.00, -1.00, 0.0, 768.0)"><path d="M 0.0 768.0 L 1024.0 768.0 L 1024.0 0.0 L 0.0 0.0 Z M 0.0 768.0 " fill="#FEFFFF"></path><image xlink:href="../../293D72A4-E83E-4E39-9173-D2FA125CBD9C/assets/364F746EE65C5D21362C0F105B3A1498.png" width="720.00" height="540.00" transform="matrix(1.42, 0.00, -0.00, -1.42, 0.0, 768.0)"></image><g><clipPath id="clip-757"><path d="M 222.0 668.0 L 392.0 668.0 L 392.0 603.0 L 222.0 603.0 Z M 222.2 667.8 "></path></clipPath><g clip-path="url(#clip-757)"><image xlink:href="../../11EA4C3E-3C9F-45F0-AC91-CB1322F84EB8/assets/4CDAA08A53443DDBCB58A60D5B653F06.png" width="170.00" height="65.00" transform="matrix(1.00, 0.00, -0.00, -1.00, 222.0, 668.0)"></image></g></g><g><clipPath id="clip-758"><path d="M 222.0 587.0 L 392.0 587.0 L 392.0 522.0 L 222.0 522.0 Z M 222.2 587.2 "></path></clipPath><g clip-path="url(#clip-758)"><image xlink:href="../../11EA4C3E-3C9F-45F0-AC91-CB1322F84EB8/assets/4CDAA08A53443DDBCB58A60D5B653F06.png" width="170.00" height="65.00" transform="matrix(1.00, 0.00, -0.00, -1.00, 222.0, 587.0)"></image></g></g><g><clipPath id="clip-759"><path d="M 222.0 502.0 L 392.0 502.0 L 392.0 437.0 L 222.0 437.0 Z M 222.2 501.8 "></path></clipPath><g clip-path="url(#clip-759)"><image xlink:href="../../11EA4C3E-3C9F-45F0-AC91-CB1322F84EB8/assets/4CDAA08A53443DDBCB58A60D5B653F06.png" width="170.00" height="65.00" transform="matrix(1.00, 0.00, -0.00, -1.00, 222.0, 502.0)"></image></g></g><g><clipPath id="clip-760"><path d="M 222.0 417.0 L 392.0 417.0 L 392.0 352.0 L 222.0 352.0 Z M 222.2 416.5 "></path></clipPath><g clip-path="url(#clip-760)"><image xlink:href="../../11EA4C3E-3C9F-45F0-AC91-CB1322F84EB8/assets/4CDAA08A53443DDBCB58A60D5B653F06.png" width="170.00" height="65.00" transform="matrix(1.00, 0.00, -0.00, -1.00, 222.0, 416.0)"></image></g></g><g><clipPath id="clip-761"><path d="M 222.0 331.0 L 392.0 331.0 L 392.0 266.0 L 222.0 266.0 Z M 222.2 331.2 "></path></clipPath><g clip-path="url(#clip-761)"><image xlink:href="../../11EA4C3E-3C9F-45F0-AC91-CB1322F84EB8/assets/4CDAA08A53443DDBCB58A60D5B653F06.png" width="170.00" height="65.00" transform="matrix(1.00, 0.00, -0.00, -1.00, 222.0, 331.0)"></image></g></g><g><clipPath id="clip-762"><path d="M 222.0 246.0 L 392.0 246.0 L 392.0 181.0 L 222.0 181.0 Z M 222.2 245.8 "></path></clipPath><g clip-path="url(#clip-762)"><image xlink:href="../../11EA4C3E-3C9F-45F0-AC91-CB1322F84EB8/assets/4CDAA08A53443DDBCB58A60D5B653F06.png" width="170.00" height="65.00" transform="matrix(1.00, 0.00, -0.00, -1.00, 222.0, 246.0)"></image></g></g><g><clipPath id="clip-763"><path d="M 222.0 161.0 L 392.0 161.0 L 392.0 96.0 L 222.0 96.0 Z M 222.2 160.5 "></path></clipPath><g clip-path="url(#clip-763)"><image xlink:href="../../11EA4C3E-3C9F-45F0-AC91-CB1322F84EB8/assets/4CDAA08A53443DDBCB58A60D5B653F06.png" width="170.00" height="65.00" transform="matrix(1.00, 0.00, -0.00, -1.00, 222.0, 160.0)"></image></g></g><g><clipPath id="clip-764"><path d="M 222.0 75.0 L 392.0 75.0 L 392.0 10.0 L 222.0 10.0 Z M 222.2 75.2 "></path></clipPath><g clip-path="url(#clip-764)"><image xlink:href="../../11EA4C3E-3C9F-45F0-AC91-CB1322F84EB8/assets/4CDAA08A53443DDBCB58A60D5B653F06.png" width="170.00" height="65.00" transform="matrix(1.00, 0.00, -0.00, -1.00, 222.0, 75.0)"></image></g></g><g><clipPath id="clip-765"><path d="M 429.0 668.0 L 599.0 668.0 L 599.0 603.0 L 429.0 603.0 Z M 429.2 667.8 "></path></clipPath><g clip-path="url(#clip-765)"><image xlink:href="../../11EA4C3E-3C9F-45F0-AC91-CB1322F84EB8/assets/4CDAA08A53443DDBCB58A60D5B653F06.png" width="170.00" height="65.00" transform="matrix(1.00, 0.00, -0.00, -1.00, 429.0, 668.0)"></image></g></g><g><clipPath id="clip-766"><path d="M 429.0 587.0 L 599.0 587.0 L 599.0 522.0 L 429.0 522.0 Z M 429.2 587.2 "></path></clipPath><g clip-path="url(#clip-766)"><image xlink:href="../../11EA4C3E-3C9F-45F0-AC91-CB1322F84EB8/assets/4CDAA08A53443DDBCB58A60D5B653F06.png" width="170.00" height="65.00" transform="matrix(1.00, 0.00, -0.00, -1.00, 429.0, 587.0)"></image></g></g><g><clipPath id="clip-767"><path d="M 429.0 502.0 L 599.0 502.0 L 599.0 437.0 L 429.0 437.0 Z M 429.2 501.8 "></path></clipPath><g clip-path="url(#clip-767)"><image xlink:href="../../11EA4C3E-3C9F-45F0-AC91-CB1322F84EB8/assets/4CDAA08A53443DDBCB58A60D5B653F06.png" width="170.00" height="65.00" transform="matrix(1.00, 0.00, -0.00, -1.00, 429.0, 502.0)"></image></g></g><g><clipPath id="clip-768"><path d="M 429.0 417.0 L 599.0 417.0 L 599.0 352.0 L 429.0 352.0 Z M 429.2 416.5 "></path></clipPath><g clip-path="url(#clip-768)"><image xlink:href="../../11EA4C3E-3C9F-45F0-AC91-CB1322F84EB8/assets/4CDAA08A53443DDBCB58A60D5B653F06.png" width="170.00" height="65.00" transform="matrix(1.00, 0.00, -0.00, -1.00, 429.0, 416.0)"></image></g></g><g><clipPath id="clip-769"><path d="M 429.0 331.0 L 599.0 331.0 L 599.0 266.0 L 429.0 266.0 Z M 429.2 331.2 "></path></clipPath><g clip-path="url(#clip-769)"><image xlink:href="../../11EA4C3E-3C9F-45F0-AC91-CB1322F84EB8/assets/4CDAA08A53443DDBCB58A60D5B653F06.png" width="170.00" height="65.00" transform="matrix(1.00, 0.00, -0.00, -1.00, 429.0, 331.0)"></image></g></g><g><clipPath id="clip-770"><path d="M 429.0 246.0 L 599.0 246.0 L 599.0 181.0 L 429.0 181.0 Z M 429.2 245.8 "></path></clipPath><g clip-path="url(#clip-770)"><image xlink:href="../../11EA4C3E-3C9F-45F0-AC91-CB1322F84EB8/assets/4CDAA08A53443DDBCB58A60D5B653F06.png" width="170.00" height="65.00" transform="matrix(1.00, 0.00, -0.00, -1.00, 429.0, 246.0)"></image></g></g><g><clipPath id="clip-771"><path d="M 429.0 161.0 L 599.0 161.0 L 599.0 96.0 L 429.0 96.0 Z M 429.2 160.5 "></path></clipPath><g clip-path="url(#clip-771)"><image xlink:href="../../11EA4C3E-3C9F-45F0-AC91-CB1322F84EB8/assets/4CDAA08A53443DDBCB58A60D5B653F06.png" width="170.00" height="65.00" transform="matrix(1.00, 0.00, -0.00, -1.00, 429.0, 160.0)"></image></g></g><g><clipPath id="clip-772"><path d="M 429.0 75.0 L 599.0 75.0 L 599.0 10.0 L 429.0 10.0 Z M 429.2 75.2 "></path></clipPath><g clip-path="url(#clip-772)"><image xlink:href="../../11EA4C3E-3C9F-45F0-AC91-CB1322F84EB8/assets/4CDAA08A53443DDBCB58A60D5B653F06.png" width="170.00" height="65.00" transform="matrix(1.00, 0.00, -0.00, -1.00, 429.0, 75.0)"></image></g></g><g><clipPath id="clip-773"><path d="M 632.0 668.0 L 802.0 668.0 L 802.0 603.0 L 632.0 603.0 Z M 631.8 667.8 "></path></clipPath><g clip-path="url(#clip-773)"><image xlink:href="../../11EA4C3E-3C9F-45F0-AC91-CB1322F84EB8/assets/4CDAA08A53443DDBCB58A60D5B653F06.png" width="170.00" height="65.00" transform="matrix(1.00, 0.00, -0.00, -1.00, 632.0, 668.0)"></image></g></g><g><clipPath id="clip-774"><path d="M 632.0 587.0 L 802.0 587.0 L 802.0 522.0 L 632.0 522.0 Z M 631.8 587.2 "></path></clipPath><g clip-path="url(#clip-774)"><image xlink:href="../../11EA4C3E-3C9F-45F0-AC91-CB1322F84EB8/assets/4CDAA08A53443DDBCB58A60D5B653F06.png" width="170.00" height="65.00" transform="matrix(1.00, 0.00, -0.00, -1.00, 632.0, 587.0)"></image></g></g><g><clipPath id="clip-775"><path d="M 632.0 502.0 L 802.0 502.0 L 802.0 437.0 L 632.0 437.0 Z M 631.8 501.8 "></path></clipPath><g clip-path="url(#clip-775)"><image xlink:href="../../11EA4C3E-3C9F-45F0-AC91-CB1322F84EB8/assets/4CDAA08A53443DDBCB58A60D5B653F06.png" width="170.00" height="65.00" transform="matrix(1.00, 0.00, -0.00, -1.00, 632.0, 502.0)"></image></g></g><g><clipPath id="clip-776"><path d="M 632.0 417.0 L 802.0 417.0 L 802.0 352.0 L 632.0 352.0 Z M 631.8 416.5 "></path></clipPath><g clip-path="url(#clip-776)"><image xlink:href="../../11EA4C3E-3C9F-45F0-AC91-CB1322F84EB8/assets/4CDAA08A53443DDBCB58A60D5B653F06.png" width="170.00" height="65.00" transform="matrix(1.00, 0.00, -0.00, -1.00, 632.0, 416.0)"></image></g></g><g><clipPath id="clip-777"><path d="M 632.0 331.0 L 802.0 331.0 L 802.0 266.0 L 632.0 266.0 Z M 631.8 331.2 "></path></clipPath><g clip-path="url(#clip-777)"><image xlink:href="../../11EA4C3E-3C9F-45F0-AC91-CB1322F84EB8/assets/4CDAA08A53443DDBCB58A60D5B653F06.png" width="170.00" height="65.00" transform="matrix(1.00, 0.00, -0.00, -1.00, 632.0, 331.0)"></image></g></g><g><clipPath id="clip-778"><path d="M 632.0 246.0 L 802.0 246.0 L 802.0 181.0 L 632.0 181.0 Z M 631.8 245.8 "></path></clipPath><g clip-path="url(#clip-778)"><image xlink:href="../../11EA4C3E-3C9F-45F0-AC91-CB1322F84EB8/assets/4CDAA08A53443DDBCB58A60D5B653F06.png" width="170.00" height="65.00" transform="matrix(1.00, 0.00, -0.00, -1.00, 632.0, 246.0)"></image></g></g><g><clipPath id="clip-779"><path d="M 632.0 161.0 L 802.0 161.0 L 802.0 96.0 L 632.0 96.0 Z M 631.8 160.5 "></path></clipPath><g clip-path="url(#clip-779)"><image xlink:href="../../11EA4C3E-3C9F-45F0-AC91-CB1322F84EB8/assets/4CDAA08A53443DDBCB58A60D5B653F06.png" width="170.00" height="65.00" transform="matrix(1.00, 0.00, -0.00, -1.00, 632.0, 160.0)"></image></g></g><g><clipPath id="clip-780"><path d="M 632.0 75.0 L 802.0 75.0 L 802.0 10.0 L 632.0 10.0 Z M 631.8 75.2 "></path></clipPath><g clip-path="url(#clip-780)"><image xlink:href="../../11EA4C3E-3C9F-45F0-AC91-CB1322F84EB8/assets/4CDAA08A53443DDBCB58A60D5B653F06.png" width="170.00" height="65.00" transform="matrix(1.00, 0.00, -0.00, -1.00, 632.0, 75.0)"></image></g></g><g><clipPath id="clip-781"><path d="M 837.0 668.0 L 1007.0 668.0 L 1007.0 603.0 L 837.0 603.0 Z M 836.6 667.8 "></path></clipPath><g clip-path="url(#clip-781)"><image xlink:href="../../11EA4C3E-3C9F-45F0-AC91-CB1322F84EB8/assets/4CDAA08A53443DDBCB58A60D5B653F06.png" width="170.00" height="65.00" transform="matrix(1.00, 0.00, -0.00, -1.00, 837.0, 668.0)"></image></g></g><g><clipPath id="clip-782"><path d="M 837.0 587.0 L 1007.0 587.0 L 1007.0 522.0 L 837.0 522.0 Z M 836.6 587.2 "></path></clipPath><g clip-path="url(#clip-782)"><image xlink:href="../../11EA4C3E-3C9F-45F0-AC91-CB1322F84EB8/assets/4CDAA08A53443DDBCB58A60D5B653F06.png" width="170.00" height="65.00" transform="matrix(1.00, 0.00, -0.00, -1.00, 837.0, 587.0)"></image></g></g><g><clipPath id="clip-783"><path d="M 837.0 502.0 L 1007.0 502.0 L 1007.0 437.0 L 837.0 437.0 Z M 836.6 501.8 "></path></clipPath><g clip-path="url(#clip-783)"><image xlink:href="../../11EA4C3E-3C9F-45F0-AC91-CB1322F84EB8/assets/4CDAA08A53443DDBCB58A60D5B653F06.png" width="170.00" height="65.00" transform="matrix(1.00, 0.00, -0.00, -1.00, 837.0, 502.0)"></image></g></g><g><clipPath id="clip-784"><path d="M 837.0 417.0 L 1007.0 417.0 L 1007.0 352.0 L 837.0 352.0 Z M 836.6 416.5 "></path></clipPath><g clip-path="url(#clip-784)"><image xlink:href="../../11EA4C3E-3C9F-45F0-AC91-CB1322F84EB8/assets/4CDAA08A53443DDBCB58A60D5B653F06.png" width="170.00" height="65.00" transform="matrix(1.00, 0.00, -0.00, -1.00, 837.0, 416.0)"></image></g></g><g><clipPath id="clip-785"><path d="M 837.0 331.0 L 1007.0 331.0 L 1007.0 266.0 L 837.0 266.0 Z M 836.6 331.2 "></path></clipPath><g clip-path="url(#clip-785)"><image xlink:href="../../11EA4C3E-3C9F-45F0-AC91-CB1322F84EB8/assets/4CDAA08A53443DDBCB58A60D5B653F06.png" width="170.00" height="65.00" transform="matrix(1.00, 0.00, -0.00, -1.00, 837.0, 331.0)"></image></g></g><g><clipPath id="clip-786"><path d="M 837.0 246.0 L 1007.0 246.0 L 1007.0 181.0 L 837.0 181.0 Z M 836.6 245.8 "></path></clipPath><g clip-path="url(#clip-786)"><image xlink:href="../../11EA4C3E-3C9F-45F0-AC91-CB1322F84EB8/assets/4CDAA08A53443DDBCB58A60D5B653F06.png" width="170.00" height="65.00" transform="matrix(1.00, 0.00, -0.00, -1.00, 837.0, 246.0)"></image></g></g><g><clipPath id="clip-787"><path d="M 837.0 161.0 L 1007.0 161.0 L 1007.0 96.0 L 837.0 96.0 Z M 836.6 160.5 "></path></clipPath><g clip-path="url(#clip-787)"><image xlink:href="../../11EA4C3E-3C9F-45F0-AC91-CB1322F84EB8/assets/4CDAA08A53443DDBCB58A60D5B653F06.png" width="170.00" height="65.00" transform="matrix(1.00, 0.00, -0.00, -1.00, 837.0, 160.0)"></image></g></g><g><clipPath id="clip-788"><path d="M 837.0 75.0 L 1007.0 75.0 L 1007.0 10.0 L 837.0 10.0 Z M 836.6 75.2 "></path></clipPath><g clip-path="url(#clip-788)"><image xlink:href="../../11EA4C3E-3C9F-45F0-AC91-CB1322F84EB8/assets/4CDAA08A53443DDBCB58A60D5B653F06.png" width="170.00" height="65.00" transform="matrix(1.00, 0.00, -0.00, -1.00, 837.0, 75.0)"></image></g></g></g></svg>