<?xml version="1.0" encoding="UTF-8" standalone="no"?><svg xmlns="http://www.w3.org/2000/svg" xmlns:xlink="http://www.w3.org/1999/xlink" clip-rule="evenodd" stroke-miterlimit="4.00" viewBox="0 0 1024 768"><desc>SVG generated by Keynote</desc><defs></defs><g transform="matrix(1.00, 0.00, -0.00, -1.00, 0.0, 768.0)"><path d="M 0.0 768.0 L 1024.0 768.0 L 1024.0 0.0 L 0.0 0.0 Z M 0.0 768.0 " fill="#FEFFFF"></path><image xlink:href="../../293D72A4-E83E-4E39-9173-D2FA125CBD9C/assets/364F746EE65C5D21362C0F105B3A1498.png" width="720.00" height="540.00" transform="matrix(1.42, 0.00, -0.00, -1.42, 0.0, 768.0)"></image><g><clipPath id="clip-1581"><path d="M 222.0 668.0 L 392.0 668.0 L 392.0 603.0 L 222.0 603.0 Z M 222.2 667.8 "></path></clipPath><g clip-path="url(#clip-1581)"><image xlink:href="../../293D72A4-E83E-4E39-9173-D2FA125CBD9C/assets/B629A8BA9595ED1035329D5530593FA4.png" width="170.00" height="65.00" transform="matrix(1.00, 0.00, -0.00, -1.00, 222.0, 668.0)"></image></g></g><g><clipPath id="clip-1582"><path d="M 222.0 587.0 L 392.0 587.0 L 392.0 522.0 L 222.0 522.0 Z M 222.2 587.2 "></path></clipPath><g clip-path="url(#clip-1582)"><image xlink:href="../../293D72A4-E83E-4E39-9173-D2FA125CBD9C/assets/B629A8BA9595ED1035329D5530593FA4.png" width="170.00" height="65.00" transform="matrix(1.00, 0.00, -0.00, -1.00, 222.0, 587.0)"></image></g></g><g><clipPath id="clip-1583"><path d="M 222.0 502.0 L 392.0 502.0 L 392.0 437.0 L 222.0 437.0 Z M 222.2 501.8 "></path></clipPath><g clip-path="url(#clip-1583)"><image xlink:href="../../293D72A4-E83E-4E39-9173-D2FA125CBD9C/assets/B629A8BA9595ED1035329D5530593FA4.png" width="170.00" height="65.00" transform="matrix(1.00, 0.00, -0.00, -1.00, 222.0, 502.0)"></image></g></g><g><clipPath id="clip-1584"><path d="M 222.0 417.0 L 392.0 417.0 L 392.0 352.0 L 222.0 352.0 Z M 222.2 416.5 "></path></clipPath><g clip-path="url(#clip-1584)"><image xlink:href="../../293D72A4-E83E-4E39-9173-D2FA125CBD9C/assets/B629A8BA9595ED1035329D5530593FA4.png" width="170.00" height="65.00" transform="matrix(1.00, 0.00, -0.00, -1.00, 222.0, 416.0)"></image></g></g><g><clipPath id="clip-1585"><path d="M 222.0 331.0 L 392.0 331.0 L 392.0 266.0 L 222.0 266.0 Z M 222.2 331.2 "></path></clipPath><g clip-path="url(#clip-1585)"><image xlink:href="../../293D72A4-E83E-4E39-9173-D2FA125CBD9C/assets/B629A8BA9595ED1035329D5530593FA4.png" width="170.00" height="65.00" transform="matrix(1.00, 0.00, -0.00, -1.00, 222.0, 331.0)"></image></g></g><g><clipPath id="clip-1586"><path d="M 222.0 246.0 L 392.0 246.0 L 392.0 181.0 L 222.0 181.0 Z M 222.2 245.8 "></path></clipPath><g clip-path="url(#clip-1586)"><image xlink:href="../../293D72A4-E83E-4E39-9173-D2FA125CBD9C/assets/B629A8BA9595ED1035329D5530593FA4.png" width="170.00" height="65.00" transform="matrix(1.00, 0.00, -0.00, -1.00, 222.0, 246.0)"></image></g></g><g><clipPath id="clip-1587"><path d="M 222.0 161.0 L 392.0 161.0 L 392.0 96.0 L 222.0 96.0 Z M 222.2 160.5 "></path></clipPath><g clip-path="url(#clip-1587)"><image xlink:href="../../293D72A4-E83E-4E39-9173-D2FA125CBD9C/assets/B629A8BA9595ED1035329D5530593FA4.png" width="170.00" height="65.00" transform="matrix(1.00, 0.00, -0.00, -1.00, 222.0, 160.0)"></image></g></g><g><clipPath id="clip-1588"><path d="M 222.0 75.0 L 392.0 75.0 L 392.0 10.0 L 222.0 10.0 Z M 222.2 75.2 "></path></clipPath><g clip-path="url(#clip-1588)"><image xlink:href="../../293D72A4-E83E-4E39-9173-D2FA125CBD9C/assets/B629A8BA9595ED1035329D5530593FA4.png" width="170.00" height="65.00" transform="matrix(1.00, 0.00, -0.00, -1.00, 222.0, 75.0)"></image></g></g><g><clipPath id="clip-1589"><path d="M 429.0 668.0 L 599.0 668.0 L 599.0 603.0 L 429.0 603.0 Z M 429.2 667.8 "></path></clipPath><g clip-path="url(#clip-1589)"><image xlink:href="../../293D72A4-E83E-4E39-9173-D2FA125CBD9C/assets/B629A8BA9595ED1035329D5530593FA4.png" width="170.00" height="65.00" transform="matrix(1.00, 0.00, -0.00, -1.00, 429.0, 668.0)"></image></g></g><g><clipPath id="clip-1590"><path d="M 429.0 587.0 L 599.0 587.0 L 599.0 522.0 L 429.0 522.0 Z M 429.2 587.2 "></path></clipPath><g clip-path="url(#clip-1590)"><image xlink:href="../../293D72A4-E83E-4E39-9173-D2FA125CBD9C/assets/B629A8BA9595ED1035329D5530593FA4.png" width="170.00" height="65.00" transform="matrix(1.00, 0.00, -0.00, -1.00, 429.0, 587.0)"></image></g></g><g><clipPath id="clip-1591"><path d="M 429.0 502.0 L 599.0 502.0 L 599.0 437.0 L 429.0 437.0 Z M 429.2 501.8 "></path></clipPath><g clip-path="url(#clip-1591)"><image xlink:href="../../293D72A4-E83E-4E39-9173-D2FA125CBD9C/assets/B629A8BA9595ED1035329D5530593FA4.png" width="170.00" height="65.00" transform="matrix(1.00, 0.00, -0.00, -1.00, 429.0, 502.0)"></image></g></g><g><clipPath id="clip-1592"><path d="M 429.0 417.0 L 599.0 417.0 L 599.0 352.0 L 429.0 352.0 Z M 429.2 416.5 "></path></clipPath><g clip-path="url(#clip-1592)"><image xlink:href="../../293D72A4-E83E-4E39-9173-D2FA125CBD9C/assets/B629A8BA9595ED1035329D5530593FA4.png" width="170.00" height="65.00" transform="matrix(1.00, 0.00, -0.00, -1.00, 429.0, 416.0)"></image></g></g><g><clipPath id="clip-1593"><path d="M 429.0 331.0 L 599.0 331.0 L 599.0 266.0 L 429.0 266.0 Z M 429.2 331.2 "></path></clipPath><g clip-path="url(#clip-1593)"><image xlink:href="../../293D72A4-E83E-4E39-9173-D2FA125CBD9C/assets/B629A8BA9595ED1035329D5530593FA4.png" width="170.00" height="65.00" transform="matrix(1.00, 0.00, -0.00, -1.00, 429.0, 331.0)"></image></g></g><g><clipPath id="clip-1594"><path d="M 429.0 246.0 L 599.0 246.0 L 599.0 181.0 L 429.0 181.0 Z M 429.2 245.8 "></path></clipPath><g clip-path="url(#clip-1594)"><image xlink:href="../../293D72A4-E83E-4E39-9173-D2FA125CBD9C/assets/B629A8BA9595ED1035329D5530593FA4.png" width="170.00" height="65.00" transform="matrix(1.00, 0.00, -0.00, -1.00, 429.0, 246.0)"></image></g></g><g><clipPath id="clip-1595"><path d="M 429.0 161.0 L 599.0 161.0 L 599.0 96.0 L 429.0 96.0 Z M 429.2 160.5 "></path></clipPath><g clip-path="url(#clip-1595)"><image xlink:href="../../293D72A4-E83E-4E39-9173-D2FA125CBD9C/assets/B629A8BA9595ED1035329D5530593FA4.png" width="170.00" height="65.00" transform="matrix(1.00, 0.00, -0.00, -1.00, 429.0, 160.0)"></image></g></g><g><clipPath id="clip-1596"><path d="M 429.0 75.0 L 599.0 75.0 L 599.0 10.0 L 429.0 10.0 Z M 429.2 75.2 "></path></clipPath><g clip-path="url(#clip-1596)"><image xlink:href="../../293D72A4-E83E-4E39-9173-D2FA125CBD9C/assets/B629A8BA9595ED1035329D5530593FA4.png" width="170.00" height="65.00" transform="matrix(1.00, 0.00, -0.00, -1.00, 429.0, 75.0)"></image></g></g><g><clipPath id="clip-1597"><path d="M 632.0 668.0 L 802.0 668.0 L 802.0 603.0 L 632.0 603.0 Z M 631.8 667.8 "></path></clipPath><g clip-path="url(#clip-1597)"><image xlink:href="../../293D72A4-E83E-4E39-9173-D2FA125CBD9C/assets/B629A8BA9595ED1035329D5530593FA4.png" width="170.00" height="65.00" transform="matrix(1.00, 0.00, -0.00, -1.00, 632.0, 668.0)"></image></g></g><g><clipPath id="clip-1598"><path d="M 632.0 587.0 L 802.0 587.0 L 802.0 522.0 L 632.0 522.0 Z M 631.8 587.2 "></path></clipPath><g clip-path="url(#clip-1598)"><image xlink:href="../../293D72A4-E83E-4E39-9173-D2FA125CBD9C/assets/B629A8BA9595ED1035329D5530593FA4.png" width="170.00" height="65.00" transform="matrix(1.00, 0.00, -0.00, -1.00, 632.0, 587.0)"></image></g></g><g><clipPath id="clip-1599"><path d="M 632.0 502.0 L 802.0 502.0 L 802.0 437.0 L 632.0 437.0 Z M 631.8 501.8 "></path></clipPath><g clip-path="url(#clip-1599)"><image xlink:href="../../293D72A4-E83E-4E39-9173-D2FA125CBD9C/assets/B629A8BA9595ED1035329D5530593FA4.png" width="170.00" height="65.00" transform="matrix(1.00, 0.00, -0.00, -1.00, 632.0, 502.0)"></image></g></g><g><clipPath id="clip-1600"><path d="M 632.0 417.0 L 802.0 417.0 L 802.0 352.0 L 632.0 352.0 Z M 631.8 416.5 "></path></clipPath><g clip-path="url(#clip-1600)"><image xlink:href="../../293D72A4-E83E-4E39-9173-D2FA125CBD9C/assets/B629A8BA9595ED1035329D5530593FA4.png" width="170.00" height="65.00" transform="matrix(1.00, 0.00, -0.00, -1.00, 632.0, 416.0)"></image></g></g><g><clipPath id="clip-1601"><path d="M 632.0 331.0 L 802.0 331.0 L 802.0 266.0 L 632.0 266.0 Z M 631.8 331.2 "></path></clipPath><g clip-path="url(#clip-1601)"><image xlink:href="../../293D72A4-E83E-4E39-9173-D2FA125CBD9C/assets/B629A8BA9595ED1035329D5530593FA4.png" width="170.00" height="65.00" transform="matrix(1.00, 0.00, -0.00, -1.00, 632.0, 331.0)"></image></g></g><g><clipPath id="clip-1602"><path d="M 632.0 246.0 L 802.0 246.0 L 802.0 181.0 L 632.0 181.0 Z M 631.8 245.8 "></path></clipPath><g clip-path="url(#clip-1602)"><image xlink:href="../../293D72A4-E83E-4E39-9173-D2FA125CBD9C/assets/B629A8BA9595ED1035329D5530593FA4.png" width="170.00" height="65.00" transform="matrix(1.00, 0.00, -0.00, -1.00, 632.0, 246.0)"></image></g></g><g><clipPath id="clip-1603"><path d="M 632.0 161.0 L 802.0 161.0 L 802.0 96.0 L 632.0 96.0 Z M 631.8 160.5 "></path></clipPath><g clip-path="url(#clip-1603)"><image xlink:href="../../293D72A4-E83E-4E39-9173-D2FA125CBD9C/assets/B629A8BA9595ED1035329D5530593FA4.png" width="170.00" height="65.00" transform="matrix(1.00, 0.00, -0.00, -1.00, 632.0, 160.0)"></image></g></g><g><clipPath id="clip-1604"><path d="M 632.0 75.0 L 802.0 75.0 L 802.0 10.0 L 632.0 10.0 Z M 631.8 75.2 "></path></clipPath><g clip-path="url(#clip-1604)"><image xlink:href="../../293D72A4-E83E-4E39-9173-D2FA125CBD9C/assets/B629A8BA9595ED1035329D5530593FA4.png" width="170.00" height="65.00" transform="matrix(1.00, 0.00, -0.00, -1.00, 632.0, 75.0)"></image></g></g><g><clipPath id="clip-1605"><path d="M 837.0 668.0 L 1007.0 668.0 L 1007.0 603.0 L 837.0 603.0 Z M 836.6 667.8 "></path></clipPath><g clip-path="url(#clip-1605)"><image xlink:href="../../293D72A4-E83E-4E39-9173-D2FA125CBD9C/assets/B629A8BA9595ED1035329D5530593FA4.png" width="170.00" height="65.00" transform="matrix(1.00, 0.00, -0.00, -1.00, 837.0, 668.0)"></image></g></g><g><clipPath id="clip-1606"><path d="M 837.0 587.0 L 1007.0 587.0 L 1007.0 522.0 L 837.0 522.0 Z M 836.6 587.2 "></path></clipPath><g clip-path="url(#clip-1606)"><image xlink:href="../../293D72A4-E83E-4E39-9173-D2FA125CBD9C/assets/B629A8BA9595ED1035329D5530593FA4.png" width="170.00" height="65.00" transform="matrix(1.00, 0.00, -0.00, -1.00, 837.0, 587.0)"></image></g></g><g><clipPath id="clip-1607"><path d="M 837.0 502.0 L 1007.0 502.0 L 1007.0 437.0 L 837.0 437.0 Z M 836.6 501.8 "></path></clipPath><g clip-path="url(#clip-1607)"><image xlink:href="../../293D72A4-E83E-4E39-9173-D2FA125CBD9C/assets/B629A8BA9595ED1035329D5530593FA4.png" width="170.00" height="65.00" transform="matrix(1.00, 0.00, -0.00, -1.00, 837.0, 502.0)"></image></g></g><g><clipPath id="clip-1608"><path d="M 837.0 417.0 L 1007.0 417.0 L 1007.0 352.0 L 837.0 352.0 Z M 836.6 416.5 "></path></clipPath><g clip-path="url(#clip-1608)"><image xlink:href="../../293D72A4-E83E-4E39-9173-D2FA125CBD9C/assets/B629A8BA9595ED1035329D5530593FA4.png" width="170.00" height="65.00" transform="matrix(1.00, 0.00, -0.00, -1.00, 837.0, 416.0)"></image></g></g><g><clipPath id="clip-1609"><path d="M 837.0 331.0 L 1007.0 331.0 L 1007.0 266.0 L 837.0 266.0 Z M 836.6 331.2 "></path></clipPath><g clip-path="url(#clip-1609)"><image xlink:href="../../293D72A4-E83E-4E39-9173-D2FA125CBD9C/assets/B629A8BA9595ED1035329D5530593FA4.png" width="170.00" height="65.00" transform="matrix(1.00, 0.00, -0.00, -1.00, 837.0, 331.0)"></image></g></g><g><clipPath id="clip-1610"><path d="M 837.0 246.0 L 1007.0 246.0 L 1007.0 181.0 L 837.0 181.0 Z M 836.6 245.8 "></path></clipPath><g clip-path="url(#clip-1610)"><image xlink:href="../../293D72A4-E83E-4E39-9173-D2FA125CBD9C/assets/B629A8BA9595ED1035329D5530593FA4.png" width="170.00" height="65.00" transform="matrix(1.00, 0.00, -0.00, -1.00, 837.0, 246.0)"></image></g></g><g><clipPath id="clip-1611"><path d="M 837.0 161.0 L 1007.0 161.0 L 1007.0 96.0 L 837.0 96.0 Z M 836.6 160.5 "></path></clipPath><g clip-path="url(#clip-1611)"><image xlink:href="../../293D72A4-E83E-4E39-9173-D2FA125CBD9C/assets/B629A8BA9595ED1035329D5530593FA4.png" width="170.00" height="65.00" transform="matrix(1.00, 0.00, -0.00, -1.00, 837.0, 160.0)"></image></g></g><g><clipPath id="clip-1612"><path d="M 837.0 75.0 L 1007.0 75.0 L 1007.0 10.0 L 837.0 10.0 Z M 836.6 75.2 "></path></clipPath><g clip-path="url(#clip-1612)"><image xlink:href="../../293D72A4-E83E-4E39-9173-D2FA125CBD9C/assets/B629A8BA9595ED1035329D5530593FA4.png" width="170.00" height="65.00" transform="matrix(1.00, 0.00, -0.00, -1.00, 837.0, 75.0)"></image></g></g></g></svg>